<?xml version="1.0" encoding="utf-8"?>
<!-- Generator: Adobe Illustrator 22.0.0, SVG Export Plug-In . SVG Version: 6.00 Build 0)  -->
<svg version="1.1" id="Camada_1" xmlns="http://www.w3.org/2000/svg" xmlns:xlink="http://www.w3.org/1999/xlink" x="0px" y="0px"
	 viewBox="0 0 171 63.2" style="enable-background:new 0 0 171 63.2;" xml:space="preserve">
<style type="text/css">
	.st0{fill:url(#SVGID_1_);}
	.st1{fill:url(#SVGID_2_);}
	.st2{fill:#FFFFFF;}
</style>
<title>Ativo 5</title>
<g>
	
		<linearGradient id="SVGID_1_" gradientUnits="userSpaceOnUse" x1="24.197" y1="16.4607" x2="49.5127" y2="16.4607" gradientTransform="matrix(1 0 0 -1 0 66.5)">
		<stop  offset="0" style="stop-color:#221F3D"/>
		<stop  offset="1" style="stop-color:#6EA39A"/>
	</linearGradient>
	<path class="st0" d="M45.4,38.5c-6.9,0-10.2,5-10.2,13.1v10c7.3-1.1,14-4.9,18.7-10.6v-2.5C53.9,43.1,51.9,38.5,45.4,38.5z"/>
	
		<linearGradient id="SVGID_2_" gradientUnits="userSpaceOnUse" x1="0.5229" y1="35.1655" x2="60.8332" y2="35.1655" gradientTransform="matrix(1 0 0 -1 0 66.5)">
		<stop  offset="0" style="stop-color:#221F3D"/>
		<stop  offset="1" style="stop-color:#6EA39A"/>
	</linearGradient>
	<path class="st1" d="M30.7,1.6C14,1.6,0.5,15.1,0.5,31.7c0,14,9.6,26.1,23.2,29.3V41c0-2.8,0-5.8,0-8.5c0-3,2.4-5.5,5.4-5.6
		c0,0,0.1,0,0.1,0h0.1c2.9,0,5.4,2.3,5.6,5.2l0,0c0.1,0.9,0.9,1.7,1.8,1.6c0.4,0,0.7-0.2,1-0.4c2.3-2.2,5.9-3.9,11.5-3.9
		c4.8,0,8.7,1.4,11.5,4.1c0-0.6,0.1-1.2,0.1-1.8C60.8,15.1,47.3,1.6,30.7,1.6z M10.7,40.7c0-3-2.5-5.5-5.5-5.5c3,0,5.5-2.5,5.5-5.5
		c0,3,2.5,5.5,5.5,5.5C13.2,35.2,10.7,37.6,10.7,40.7C10.7,40.7,10.7,40.7,10.7,40.7z M18.8,29.7c0-6.1-4.9-11-11-11
		c6.1,0,11-4.9,11-11c0,0,0,0,0,0c0,6.1,4.9,11,11,11c0,0,0,0,0,0C23.7,18.7,18.8,23.6,18.8,29.7C18.8,29.7,18.8,29.7,18.8,29.7z"/>
</g>
<g>
	<path class="st2" d="M74.9,1.6h3.8l9.4,19.2l-0.5,0.5V1.6h3.8v25.5h-3.9L78.2,8.4l0.5-0.5v19.2h-3.8V1.6z"/>
	<path class="st2" d="M100.7,27.4l-1.6-0.8c-1-0.5-1.9-1.4-2.4-2.4c-0.6-1.2-0.9-2.6-0.8-3.9v-4c0-1.4,0.2-2.8,0.8-4.1
		c0.5-1.1,1.3-2,2.4-2.6c1.1-0.6,2.4-0.9,3.7-0.9c1.3,0,2.5,0.3,3.6,1c1,0.7,1.8,1.7,2.3,2.8c0.5,1.4,0.8,2.9,0.8,4.5v2.7H98.6v-3h7
		v-0.9c0.1-0.9-0.2-1.8-0.8-2.5c-0.5-0.6-1.3-1-2.1-0.9c-0.9,0-1.8,0.3-2.3,1C99.7,14,99.5,15,99.5,16v4.2c-0.1,0.9,0.3,1.9,0.9,2.6
		c0.7,0.7,1.6,1,2.5,0.9c0.6,0,1.2-0.2,1.7-0.5c0.5-0.4,0.9-0.9,1.1-1.4l3.4,1.6c-0.4,1.2-1.2,2.3-2.3,3c-1.2,0.7-2.5,1-3.9,1
		L100.7,27.4z"/>
	<path class="st2" d="M113.4,1.6h4v25.5h-4V1.6z M118.8,26.5c-0.8-0.6-1.3-1.4-1.6-2.3l0.2-3.5c0,0.6,0.1,1.1,0.3,1.6
		c0.2,0.4,0.5,0.8,0.9,1c0.4,0.3,0.9,0.4,1.4,0.4c0.8,0,1.5-0.3,2-0.9c0.5-0.7,0.8-1.6,0.7-2.4v-4.9c0.1-0.9-0.2-1.7-0.7-2.4
		c-0.5-0.6-1.2-0.9-2-0.9c-0.5,0-1,0.1-1.4,0.3c-0.4,0.2-0.7,0.6-0.9,1c-0.2,0.5-0.3,1-0.3,1.6L117,12c0.4-1,1.1-1.8,1.9-2.5
		c0.7-0.6,1.7-0.9,2.6-0.9c1,0,2,0.2,2.8,0.8c0.8,0.6,1.5,1.4,1.8,2.3c0.4,1.2,0.6,2.4,0.6,3.7v5.2c0,1.2-0.2,2.5-0.6,3.7
		c-0.4,0.9-1,1.7-1.8,2.3c-0.9,0.5-1.9,0.8-2.9,0.8C120.4,27.4,119.5,27.1,118.8,26.5L118.8,26.5z"/>
	<path class="st2" d="M134.4,20.9c0,0.8,0.2,1.5,0.7,2.1c0.5,0.5,1.3,0.8,2,0.7c0.7,0,1.5-0.2,2-0.7c0.5-0.5,0.7-1.3,0.7-2l0.2,3.1
		c-0.3,0.9-0.9,1.7-1.6,2.4c-0.8,0.6-1.7,0.9-2.7,0.9c-1.5,0.1-3-0.5-4-1.7c-1-1.4-1.5-3.1-1.4-4.8v-12h3.9L134.4,20.9z M139.9,8.9
		h3.9v18.2h-3.9V8.9z"/>
	<path class="st2" d="M152.3,21.9c0,0.4,0.1,0.8,0.3,1.1c0.2,0.3,0.6,0.4,0.9,0.4h1.1v3.8h-2c-1.2,0.1-2.4-0.4-3.2-1.3
		c-0.8-1-1.2-2.3-1.1-3.6V1.6h4V21.9z"/>
	<path class="st2" d="M158.5,26c-1-1.1-1.5-2.6-1.4-4.1c-0.1-1.6,0.4-3.1,1.5-4.3c1.3-1,2.9-1.5,4.6-1.4h3.7l0.2,3.2h-3.9
		c-0.7-0.1-1.3,0.2-1.8,0.6c-0.4,0.5-0.7,1.2-0.6,1.9c-0.1,0.6,0.2,1.2,0.7,1.6c0.6,0.4,1.3,0.6,2,0.5c0.9,0.1,1.7-0.1,2.5-0.5
		c0.5-0.3,0.8-0.9,0.8-1.5l0.4,2.2c-0.1,0.6-0.4,1.2-0.8,1.7c-0.4,0.5-0.9,0.8-1.5,1.1c-0.7,0.2-1.4,0.4-2.1,0.3
		C161.2,27.5,159.7,27,158.5,26z M166.8,14.9c0-0.8-0.2-1.5-0.7-2.1c-0.6-0.5-1.4-0.8-2.1-0.7c-0.6,0-1.2,0.1-1.7,0.4
		c-0.5,0.3-0.9,0.7-1.3,1.2l-3.1-1.4c0.4-1.2,1.2-2.1,2.2-2.7c1.2-0.7,2.5-1,3.9-1c1.2,0,2.4,0.2,3.6,0.7c1,0.5,1.7,1.2,2.2,2.1
		c0.5,1,0.8,2.2,0.8,3.3v12.3h-3.7L166.8,14.9z"/>
	<path class="st2" d="M74.7,35.8h16v3.8h-16V35.8z M80.7,37.8h3.9v23.4h-3.9L80.7,37.8z"/>
	<path class="st2" d="M95.2,61.5l-1.6-0.8c-1.1-0.5-1.9-1.4-2.4-2.5c-0.6-1.2-0.9-2.6-0.8-3.9v-3.9c0-1.4,0.2-2.8,0.8-4.1
		c0.5-1.1,1.3-2,2.3-2.6c1.1-0.6,2.4-0.9,3.7-0.9c1.3,0,2.5,0.3,3.6,1c1,0.7,1.8,1.7,2.3,2.8c0.5,1.4,0.8,2.9,0.8,4.5v2.7H93.1v-3h7
		v-0.9c0.1-0.9-0.2-1.8-0.8-2.5c-0.5-0.6-1.3-1-2.1-0.9c-0.9,0-1.8,0.3-2.3,1c-0.6,0.8-0.9,1.8-0.8,2.8v4.2c-0.1,1,0.3,1.9,0.9,2.6
		c0.7,0.7,1.6,1,2.5,0.9c0.6,0,1.2-0.2,1.7-0.5c0.5-0.4,0.9-0.9,1.1-1.4l3.4,1.6c-0.4,1.2-1.2,2.3-2.3,3c-1.2,0.7-2.5,1-3.9,1
		L95.2,61.5z"/>
	<path class="st2" d="M112.4,61.5l-1.6-0.8c-1-0.5-1.9-1.4-2.4-2.4c-0.6-1.2-0.9-2.5-0.8-3.8v-4.8c0-1.3,0.2-2.6,0.8-3.8
		c0.5-1,1.4-1.9,2.4-2.4c1.2-0.6,2.5-0.9,3.8-0.8c1,0,2,0.1,3,0.5c0.8,0.3,1.5,0.8,2.1,1.5c0.6,0.7,1,1.6,1.2,2.5l-3.6,1.5
		c-0.2-0.7-0.5-1.3-1-1.7c-0.5-0.4-1.1-0.6-1.7-0.6c-0.9,0-1.7,0.3-2.3,0.9c-0.6,0.7-0.9,1.6-0.8,2.5v4.6c-0.1,0.9,0.2,1.8,0.8,2.5
		c0.6,0.6,1.4,0.9,2.3,0.9c0.6,0,1.2-0.2,1.7-0.6c0.5-0.5,0.8-1,1-1.7l3.6,1.6c-0.2,0.9-0.6,1.7-1.2,2.4c-0.6,0.7-1.3,1.2-2.1,1.4
		c-1,0.3-2,0.5-3,0.5L112.4,61.5z"/>
	<path class="st2" d="M124.1,35.8h4v25.5h-4V35.8z M133.7,49.6c0.1-0.8-0.2-1.6-0.7-2.3c-1.2-1-3-1-4.1,0c-0.5,0.6-0.8,1.4-0.7,2.1
		l-0.4-3.2c0.4-1,1.1-1.9,1.9-2.5c0.8-0.6,1.8-0.9,2.8-0.9c1.5-0.1,2.9,0.5,3.9,1.7c1,1.4,1.5,3,1.4,4.7v12.1h-4L133.7,49.6z"/>
</g>
</svg>
