<?xml version="1.0" encoding="utf-8"?>
<!-- Generator: Adobe Illustrator 22.0.0, SVG Export Plug-In . SVG Version: 6.00 Build 0)  -->
<svg version="1.1" id="Camada_1" xmlns="http://www.w3.org/2000/svg" xmlns:xlink="http://www.w3.org/1999/xlink" x="0px" y="0px"
	 viewBox="0 0 515 354" style="enable-background:new 0 0 515 354;" xml:space="preserve">
<style type="text/css">
	.st0{fill:#2EDDDA;}
	.st1{fill:#00D2CE;}
	.st2{fill:#76E7E7;}
	.st3{fill:#B0F0EF;}
	.st4{fill:#FD5C6F;}
</style>
<g>
	<path class="st0" d="M435.5,354h-356c-43.1,0-78-34.9-78-78V78c0-43.1,34.9-78,78-78h356c43.1,0,78,34.9,78,78v198
		C513.5,319.1,478.6,354,435.5,354L435.5,354z"/>
	<path class="st0" d="M435.5,354"/>
	<path class="st1" d="M435.5,0h-356c-43.1,0-78,34.9-78,78v70.4c15.7-13,39.4-25,65.3-10.2c45.4,25.9,82.9,77.5,190.7,77.5
		s145.3-51.5,190.7-77.5c25.8-14.8,49.6-2.8,65.3,10.2V78C513.5,34.9,478.6,0,435.5,0L435.5,0z"/>
	<path class="st1" d="M435.5,0"/>
	<path class="st2" d="M304.7,156.7l187.7,172.7c-14.2,15.2-34.5,24.7-56.9,24.7h-356c-22.5,0-42.7-9.5-56.9-24.7l187.7-172.7
		C237,132.1,278,132.1,304.7,156.7L304.7,156.7z"/>
	<path class="st2" d="M304.7,156.7"/>
	<path class="st0" d="M210.3,156.7l-46.1,42.4c24.3,9.9,54.2,16.7,93.3,16.7c39.1,0,69-6.8,93.3-16.7l-46.1-42.4
		C278,132.1,237,132.1,210.3,156.7L210.3,156.7z"/>
	<path class="st0" d="M210.3,156.7"/>
	<path class="st3" d="M304.7,197.3L492.4,24.7C478.2,9.5,457.9,0,435.5,0h-356C57.1,0,36.8,9.5,22.6,24.7l187.7,172.7
		C237,221.9,278,221.9,304.7,197.3L304.7,197.3z"/>
	<path class="st3" d="M304.7,197.3"/>
	<path class="st4" d="M250.9,62.5c-8.4-4.8-23.6-9.6-38.2,5.2c-12,12.1-11.6,31.7,0.4,43.8l32,32c6.9,6.9,18.2,6.9,25.1,0l31.5-31.5
		c12.2-12.2,12.6-32.1,0.6-44.4C292,57,276,55.2,263.9,62.4C259.9,64.7,255,64.8,250.9,62.5L250.9,62.5z"/>
	<path class="st4" d="M250.9,62.5"/>
</g>
</svg>
