<?xml version="1.0" encoding="utf-8"?>
<!-- Generator: Adobe Illustrator 22.0.0, SVG Export Plug-In . SVG Version: 6.00 Build 0)  -->
<svg version="1.1" id="Camada_1" xmlns="http://www.w3.org/2000/svg" xmlns:xlink="http://www.w3.org/1999/xlink" x="0px" y="0px"
	 viewBox="0 0 500 500" style="enable-background:new 0 0 500 500;" xml:space="preserve">
<style type="text/css">
	.st0{fill:url(#SVGID_1_);}
	.st1{fill:url(#SVGID_2_);}
	.st2{opacity:0.54;fill:url(#SVGID_3_);enable-background:new    ;}
	.st3{fill:url(#SVGID_4_);}
</style>
<linearGradient id="SVGID_1_" gradientUnits="userSpaceOnUse" x1="131.4773" y1="121.3773" x2="388.7227" y2="378.6227">
	<stop  offset="0" style="stop-color:#361E3A"/>
	<stop  offset="0.5" style="stop-color:#131226"/>
	<stop  offset="1" style="stop-color:#14272B"/>
</linearGradient>
<circle class="st0" cx="260.1" cy="250" r="181.9"/>
<linearGradient id="SVGID_2_" gradientUnits="userSpaceOnUse" x1="123.1" y1="131.55" x2="76.6" y2="131.55">
	<stop  offset="0.1923" style="stop-color:#75237C"/>
	<stop  offset="1" style="stop-color:#4FA4DA"/>
</linearGradient>
<path class="st1" d="M123.1,130.4l-4.9,6.1l-5.1,6.4c-14.1-3.4-26.4-5.3-36.5-5.4c3.6-6,7.6-11.7,11.8-17.3
	C99.2,122.9,110.9,126.3,123.1,130.4z"/>
<linearGradient id="SVGID_3_" gradientUnits="userSpaceOnUse" x1="105.9052" y1="98.6052" x2="408.6948" y2="401.3948">
	<stop  offset="0" style="stop-color:#220B11"/>
	<stop  offset="3.281161e-02" style="stop-color:#230F14;stop-opacity:0.9385"/>
	<stop  offset="0.3729" style="stop-color:#213220;stop-opacity:0.3007"/>
	<stop  offset="0.5333" style="stop-color:#153E21;stop-opacity:0"/>
</linearGradient>
<ellipse class="st2" cx="257.3" cy="250" rx="212.7" ry="215.5"/>
<g>
	
		<linearGradient id="SVGID_4_" gradientUnits="userSpaceOnUse" x1="1577.0262" y1="264.6845" x2="2057.939" y2="264.6845" gradientTransform="matrix(-1 0 0 1 2067.5513 0)">
		<stop  offset="0" style="stop-color:#2D183D"/>
		<stop  offset="3.984807e-02" style="stop-color:#2B1B3C"/>
		<stop  offset="0.1061" style="stop-color:#252137"/>
		<stop  offset="0.19" style="stop-color:#17282F"/>
		<stop  offset="0.27" style="stop-color:#012A23"/>
		<stop  offset="0.7523" style="stop-color:#40B5E9"/>
		<stop  offset="0.9944" style="stop-color:#75237C"/>
	</linearGradient>
	<path class="st3" d="M457.5,337.6c-7.6-8.2-16.4-16.8-26.3-25.8l-5.9,14.4c10.3,11.2,18,21.4,22.7,30.3c5.4,10.3,6.7,18.8,3.5,25.1
		c-3.9,7.4-13.9,10.6-28.6,10.3c-40.7-1-117.3-29.7-198.8-77.1c-80.9-47.1-144.4-99.6-167.2-135.3c-8.5-13.3-11.4-24.3-7.4-31.8
		c3.7-7,13.3-10.2,27.2-10.1c3.6-6,7.6-11.7,11.8-17.3c-40.2-9.7-69.2-8.8-76.8,5.5c-8,15.1,7.4,42.1,39.2,74.3
		C88,237.8,147.7,282.7,218.7,324c70.9,41.3,138.6,70.6,188.8,83.7c42.9,11.3,73,10.7,80.9-4.5C495.7,389.4,483.9,366,457.5,337.6z"
		/>
</g>
</svg>
