<?xml version="1.0" encoding="utf-8"?>
<!-- Generator: Adobe Illustrator 22.0.0, SVG Export Plug-In . SVG Version: 6.00 Build 0)  -->
<svg version="1.1" xmlns="http://www.w3.org/2000/svg" xmlns:xlink="http://www.w3.org/1999/xlink" x="0px" y="0px"
	 viewBox="0 0 500 500" enable-background="new 0 0 500 500" xml:space="preserve">
<g id="Camada_1">
	<g>
		<linearGradient id="SVGID_1_" gradientUnits="userSpaceOnUse" x1="151.5977" y1="151.599" x2="348.3997" y2="348.401">
			<stop  offset="0" style="stop-color:#462772"/>
			<stop  offset="1" style="stop-color:#4AA69C"/>
		</linearGradient>
		<circle fill="url(#SVGID_1_)" cx="250" cy="250" r="139.2"/>
		<linearGradient id="SVGID_2_" gradientUnits="userSpaceOnUse" x1="133.3753" y1="133.3766" x2="366.6221" y2="366.6234">
			<stop  offset="0" style="stop-color:#4AA69C"/>
			<stop  offset="0.559" style="stop-color:#2581C4;stop-opacity:0"/>
		</linearGradient>
		<circle fill="url(#SVGID_2_)" cx="250" cy="250" r="164.9"/>
	</g>
</g>
<g id="Camada_2">
	<radialGradient id="SVGID_3_" cx="250" cy="252.0644" r="187.1841" gradientUnits="userSpaceOnUse">
		<stop  offset="0.2615" style="stop-color:#462772;stop-opacity:0.65"/>
		<stop  offset="0.5076" style="stop-color:#6F2B7B;stop-opacity:0.7"/>
		<stop  offset="1" style="stop-color:#BB378C;stop-opacity:0.8"/>
	</radialGradient>
	<path fill="url(#SVGID_3_)" d="M494.8,164.4c-2.8-7.9-13.6-11.6-32.9-11.4c-23.1,0.2-57.7,6-98.6,16.1v0l5.3,8
		c11.5-2.6,22.4-4.8,32.7-6.6c20.4-3.5,35.8-5,47.1-5c16.4,0,24.2,3,25.6,7c2.4,6.7-10.8,22.7-54.9,47.7c-5.8,3.3-12,6.7-18.5,10
		c-38.9,19.4-86.5,39.4-137.7,57.7c-47.9,17.2-94.4,31.2-134.9,40.9c-9.6,2.1-18.9,4-27.7,5.5c-50,8.7-70.3,4.7-72.7-2
		c-2.4-6.7,10.8-22.7,54.9-47.7c9.1-5.2,19.1-10.4,29.7-15.8l-1-9.7c-15.8,7.5-30.4,15-43.5,22.3c-21.1,11.7-37.2,22.3-47.8,31.6
		C7.4,323.8,2.6,332.5,5.2,339.7c2.6,7.2,11.8,10.9,28.2,11.4c1.1,0,2.3,0.1,3.5,0.1c13.7,0,31.7-2,53.5-6
		c48.4-8.8,110.6-26.5,175.2-49.6c64.5-23.1,123.8-49,166.8-72.9c21.1-11.7,37.2-22.3,47.8-31.6
		C492.6,180.3,497.4,171.6,494.8,164.4z"/>
	<radialGradient id="SVGID_4_" cx="466.8998" cy="161.2751" r="5.307813e-02" gradientUnits="userSpaceOnUse">
		<stop  offset="0.2615" style="stop-color:#462772;stop-opacity:0.65"/>
		<stop  offset="0.5076" style="stop-color:#6F2B7B;stop-opacity:0.7"/>
		<stop  offset="1" style="stop-color:#BB378C;stop-opacity:0.8"/>
	</radialGradient>
	<path fill="url(#SVGID_4_)" d="M467,161.3c0,0-0.1,0-0.1,0C466.9,161.3,466.9,161.3,467,161.3C467,161.3,467,161.3,467,161.3z"/>
	<radialGradient id="SVGID_5_" cx="427.4348" cy="265.3048" r="0.7389" gradientUnits="userSpaceOnUse">
		<stop  offset="0.2615" style="stop-color:#462772;stop-opacity:0.65"/>
		<stop  offset="0.5076" style="stop-color:#6F2B7B;stop-opacity:0.7"/>
		<stop  offset="1" style="stop-color:#BB378C;stop-opacity:0.8"/>
	</radialGradient>
	<rect x="427.3" y="264.3" fill="url(#SVGID_5_)" width="0.3" height="2.1"/>
</g>
</svg>
