<?xml version="1.0" encoding="utf-8"?>
<!-- Generator: Adobe Illustrator 22.0.0, SVG Export Plug-In . SVG Version: 6.00 Build 0)  -->
<svg version="1.1" id="Camada_1" xmlns="http://www.w3.org/2000/svg" xmlns:xlink="http://www.w3.org/1999/xlink" x="0px" y="0px"
	 viewBox="0 0 746.5 138.5" style="enable-background:new 0 0 746.5 138.5;" xml:space="preserve">
<style type="text/css">
	.st0{fill:#18153D;stroke:#18153D;stroke-miterlimit:10;}
</style>
<g>
	<path class="st0" d="M140.4,19.3H27.6c-4.2,0-7.6,3.4-7.6,7.6v84.8c0,4.2,3.4,7.6,7.6,7.6h112.8c4.2,0,7.6-3.4,7.6-7.6V26.9
		C148,22.6,144.6,19.3,140.4,19.3L140.4,19.3z M143,111.7c0,1.4-1.2,2.6-2.6,2.6H27.6c-1.4,0-2.6-1.2-2.6-2.6V26.9
		c0-1.4,1.2-2.6,2.6-2.6h112.8c1.4,0,2.6,1.2,2.6,2.6L143,111.7L143,111.7z"/>
	<path class="st0" d="M135.3,44H32.7c-1.4,0-2.5,1.1-2.5,2.5v60c0,1.4,1.1,2.5,2.5,2.5h29.8c1.4,0,2.5-1.1,2.5-2.5s-1.1-2.5-2.5-2.5
		H35.2V49h97.7v55H82.5c-1.4,0-2.5,1.1-2.5,2.5s1.1,2.5,2.5,2.5h52.8c1.4,0,2.5-1.1,2.5-2.5v-60C137.8,45.3,136.7,44,135.3,44
		L135.3,44z"/>
	<path class="st0" d="M67.8,36.5h64.5c1.4,0,2.5-1.1,2.5-2.5s-1.1-2.5-2.5-2.5H67.8c-1.4,0-2.5,1.1-2.5,2.5
		C65.3,35.5,66.4,36.5,67.8,36.5L67.8,36.5z"/>
	<path class="st0" d="M35.1,36.5c0.2,0,0.3,0,0.5,0s0.3-0.1,0.5-0.1c0.1-0.1,0.3-0.1,0.4-0.2c0.1-0.1,0.3-0.2,0.4-0.3
		c0.5-0.5,0.7-1.1,0.7-1.8c0-0.2,0-0.3,0-0.5s-0.1-0.3-0.1-0.5c-0.1-0.1-0.1-0.3-0.2-0.4c-0.1-0.1-0.2-0.3-0.3-0.4
		c-0.1-0.1-0.2-0.2-0.4-0.3c-0.1-0.1-0.3-0.2-0.4-0.2c-0.2-0.1-0.3-0.1-0.5-0.1c-0.3-0.1-0.7-0.1-1,0c-0.2,0-0.3,0.1-0.5,0.1
		c-0.1,0.1-0.3,0.1-0.4,0.2c-0.1,0.1-0.3,0.2-0.4,0.3c-0.1,0.1-0.2,0.2-0.3,0.4c-0.1,0.1-0.2,0.3-0.2,0.4c-0.1,0.1-0.1,0.3-0.1,0.5
		s-0.1,0.3-0.1,0.5c0,0.7,0.3,1.3,0.7,1.8C33.8,36.3,34.4,36.5,35.1,36.5L35.1,36.5z"/>
	<path class="st0" d="M42.8,35c0.1,0.1,0.1,0.3,0.2,0.4c0.1,0.1,0.2,0.3,0.3,0.4c0.5,0.5,1.1,0.7,1.8,0.7c0.2,0,0.3,0,0.5,0
		s0.3-0.1,0.5-0.1c0.1-0.1,0.3-0.1,0.4-0.2c0.1-0.1,0.3-0.2,0.4-0.3c0.1-0.1,0.2-0.2,0.3-0.4c0.1-0.1,0.2-0.3,0.2-0.4
		c0.1-0.2,0.1-0.3,0.1-0.5s0-0.3,0-0.5s0-0.3,0-0.5s-0.1-0.3-0.1-0.5c-0.1-0.1-0.1-0.3-0.2-0.4c-0.1-0.1-0.2-0.3-0.3-0.4
		c-0.1-0.1-0.2-0.2-0.4-0.3c-0.1-0.1-0.3-0.2-0.4-0.2c-0.2-0.1-0.3-0.1-0.5-0.1c-0.8-0.2-1.7,0.1-2.3,0.7c-0.1,0.1-0.2,0.2-0.3,0.4
		c-0.1,0.1-0.2,0.3-0.2,0.4c-0.1,0.1-0.1,0.3-0.1,0.5s-0.1,0.3-0.1,0.5s0,0.3,0.1,0.5C42.7,34.8,42.7,34.8,42.8,35L42.8,35z"/>
	<path class="st0" d="M52.8,35c0.1,0.1,0.1,0.3,0.2,0.4c0.1,0.1,0.2,0.3,0.3,0.4c0.1,0.1,0.2,0.2,0.4,0.3c0.1,0.1,0.3,0.2,0.4,0.2
		c0.1,0.1,0.3,0.1,0.5,0.1s0.3,0,0.5,0s0.3,0,0.5,0s0.3-0.1,0.5-0.1c0.1-0.1,0.3-0.1,0.4-0.2c0.1-0.1,0.3-0.2,0.4-0.3
		c0.1-0.1,0.2-0.2,0.3-0.4c0.1-0.1,0.2-0.3,0.2-0.4c0.1-0.2,0.1-0.3,0.1-0.5s0-0.3,0-0.5s0-0.3,0-0.5s-0.1-0.3-0.1-0.5
		c-0.1-0.1-0.1-0.3-0.2-0.4c-0.1-0.1-0.2-0.3-0.3-0.4S56.7,32,56.5,32c-0.1-0.1-0.3-0.2-0.4-0.2c-0.2-0.1-0.3-0.1-0.5-0.1
		c-0.3-0.1-0.7-0.1-1,0c-0.2,0-0.3,0.1-0.5,0.1c-0.1,0.1-0.3,0.1-0.4,0.2c-0.1,0.1-0.3,0.2-0.4,0.3c-0.1,0.1-0.2,0.2-0.3,0.4
		c-0.1,0.1-0.2,0.3-0.2,0.4c-0.1,0.1-0.1,0.3-0.1,0.5s-0.1,0.3-0.1,0.5s0,0.3,0.1,0.5C52.7,34.8,52.7,34.8,52.8,35L52.8,35z"/>
	<path class="st0" d="M64.1,62.7c-0.9-1-2.5-1.2-3.5-0.3L45.8,75.1c-0.6,0.5-0.9,1.2-0.9,1.9c0,0.7,0.3,1.4,0.9,1.9l15,12.4
		c0.5,0.4,1,0.6,1.6,0.6c0.7,0,1.4-0.3,1.9-0.9c0.9-1.1,0.7-2.6-0.3-3.5L51.3,76.9l12.6-10.8C64.9,65.3,65,63.7,64.1,62.7L64.1,62.7
		z"/>
	<path class="st0" d="M100.7,90.8c0.5,0.6,1.2,0.9,1.9,0.9c0.6,0,1.1-0.2,1.6-0.6L119,78.6c0.6-0.5,0.9-1.2,0.9-1.9
		c0-0.7-0.3-1.4-0.9-1.9l-15-12.4c-1.1-0.9-2.6-0.7-3.5,0.3c-0.9,1.1-0.7,2.6,0.3,3.5l12.7,10.5L101,87.3
		C99.9,88.3,99.8,89.8,100.7,90.8L100.7,90.8z"/>
	<path class="st0" d="M91.2,62c-1.2-0.7-2.7-0.3-3.4,0.9l-14.9,25c-0.7,1.2-0.3,2.7,0.9,3.4c0.4,0.2,0.8,0.3,1.3,0.3
		c0.9,0,1.7-0.4,2.2-1.2l14.8-25.1C92.8,64.3,92.4,62.8,91.2,62L91.2,62z"/>
	<path class="st0" d="M74.8,105.8c-0.1-0.2-0.1-0.3-0.2-0.4s-0.2-0.3-0.3-0.4c-0.1-0.1-0.2-0.2-0.4-0.3c-0.1-0.1-0.3-0.2-0.4-0.2
		c-0.1-0.1-0.3-0.1-0.5-0.1c-0.8-0.2-1.7,0.1-2.3,0.7c-0.1,0.1-0.2,0.2-0.3,0.4c-0.1,0.1-0.2,0.3-0.2,0.4c-0.1,0.1-0.1,0.3-0.1,0.5
		s0,0.3,0,0.5c0,0.7,0.3,1.3,0.7,1.8c0.5,0.5,1.1,0.7,1.8,0.7c0.2,0,0.3,0,0.5,0s0.3-0.1,0.5-0.1c0.2-0.1,0.3-0.1,0.4-0.2
		s0.3-0.2,0.4-0.3c0.1-0.1,0.2-0.2,0.3-0.4c0.1-0.1,0.2-0.3,0.2-0.4c0.1-0.1,0.1-0.3,0.1-0.5s0-0.3,0-0.5s0-0.3,0-0.5
		C74.9,106.2,74.9,105.9,74.8,105.8L74.8,105.8z"/>
</g>
<g>
	<path class="st0" d="M675.9,85.7c-1.1,0-2,0.9-2,2s0.9,2,2,2s2-0.9,2-2C677.8,86.6,676.9,85.7,675.9,85.7L675.9,85.7z"/>
	<path class="st0" d="M654.8,41.2c-0.4-1-1.6-1.4-2.6-1l-8.4,3.7c-1,0.4-1.4,1.6-1,2.6c0.3,0.7,1,1.2,1.8,1.2c0.3,0,0.5-0.1,0.8-0.2
		l8.4-3.7C654.8,43.4,655.2,42.2,654.8,41.2L654.8,41.2z"/>
	<path class="st0" d="M707.9,44l-8.4-3.7c-1-0.4-2.1,0-2.6,1c-0.4,1,0,2.1,1,2.6l8.4,3.7c0.3,0.1,0.5,0.2,0.8,0.2
		c0.7,0,1.5-0.4,1.8-1.2C709.3,45.6,708.9,44.4,707.9,44L707.9,44z"/>
	<path class="st0" d="M724.2,74.7l-11.7-15.6c0,0,0-0.1-0.1-0.1l0,0c-0.1-0.1-0.1-0.1-0.2-0.2l0,0c-0.1,0-0.1-0.1-0.2-0.1l0,0
		c-0.1,0-0.2-0.1-0.2-0.1l0,0l-22.6-10.1c2.8-3.2,4.3-7.2,4.3-11.5c0-5-2.1-9.7-5.8-13.1C684,20.6,679,19,674,19.5
		c-3.7,0.4-7.3,2.1-10.1,4.7c-2.8,2.7-4.6,6.2-5.2,9.9c-0.8,5.3,0.7,10.4,4.1,14.3l-22.6,10.1l0,0c-0.1,0-0.2,0.1-0.2,0.1l0,0
		c-0.1,0-0.1,0.1-0.2,0.1l0,0c-0.1,0.1-0.1,0.1-0.2,0.2l0,0c0,0,0,0.1-0.1,0.1l-11.7,15.6c-0.4,0.5-0.5,1.1-0.3,1.7
		c0.1,0.6,0.6,1,1.1,1.3l10.5,4.7v19.2c0,0.8,0.5,1.5,1.2,1.8l35,15.6l0,0c0.1,0,0.1,0,0.2,0.1l0,0c0.1,0,0.1,0,0.2,0l0,0
		c0.1,0,0.3,0,0.4,0s0.3,0,0.4,0l0,0c0.1,0,0.1,0,0.2,0l0,0c0.1,0,0.1,0,0.2-0.1l0,0l35-15.6c0.7-0.3,1.2-1,1.2-1.8V82.4l10.5-4.7
		c0.5-0.2,0.9-0.7,1.1-1.3C724.7,75.8,724.6,75.2,724.2,74.7L724.2,74.7z M662.1,34.4c0.9-5.9,6.1-10.7,12.2-11.4
		c5.1-0.5,9.9,1.5,13,5.7c0.8,1.1,1.4,2.3,1.9,3.5c1.9,5.7,0,11.5-4.5,15c-0.1,0.1-0.3,0.2-0.4,0.3c-0.3,0.2-0.6,0.5-0.9,0.8h-5.5
		v-7l3.3-3.2c0.7-0.7,0.9-1.8,0.3-2.6c-0.7-1-2.2-1.1-3-0.2l-2.6,2.5l-2.6-2.5c-0.5-0.5-1.3-0.8-2-0.5c-1.6,0.5-1.9,2.3-0.9,3.3
		l3.4,3.3v7h-5.5c-0.3-0.3-0.6-0.6-0.9-0.8c-0.1-0.1-0.2-0.2-0.4-0.3C663.2,44.1,661.3,39.3,662.1,34.4L662.1,34.4z M671.9,56.3
		c-0.3,0-0.6-0.1-0.9-0.2c-0.7-0.3-1.1-1-1.1-1.8v-2h12v2c0,0.8-0.5,1.5-1.2,1.8c-0.2,0.1-0.5,0.2-0.8,0.2H671.9z M679.8,60.3
		c0,2.2-1.8,3.9-3.9,3.9c-1,0-2-0.4-2.8-1.1c-0.7-0.7-1.1-1.7-1.1-2.8H679.8z M665.5,51.1c0.1,0.1,0.1,0.2,0.2,0.3
		c0.1,0.3,0.2,0.6,0.2,0.9v2.2c0,1.7,0.8,3.3,2,4.5v1.3c0,1.2,0.2,2.5,0.8,3.6c2,3.9,6.5,5.5,10.6,3.7c2.8-1.2,4.6-4.1,4.6-7.2v-1.5
		c1.3-1.1,2-2.7,2-4.5v-2.2c0-0.3,0.1-0.6,0.2-0.9c0-0.1,0.1-0.2,0.2-0.3l20.7,9.2l-31.1,13.9l-31.1-13.8L665.5,51.1z M632,75.2
		l9.3-12.4l31.5,14l-9.3,12.4L632,75.2z M708.9,100.5l-31,13.8V95.5c0-0.9-0.5-1.7-1.3-1.9c-1.4-0.5-2.7,0.6-2.7,1.9v18.8l-31-13.8
		V84.2l20.6,9.1c0.8,0.4,1.8,0.1,2.4-0.6l10-13.5L686,92.7c0.4,0.5,1,0.8,1.6,0.8c0.3,0,0.5-0.1,0.8-0.2l20.6-9.1L708.9,100.5
		L708.9,100.5z M688.2,89.1l-9.3-12.4l31.5-14l9.3,12.4L688.2,89.1z"/>
	<path class="st0" d="M653.8,27.4l-8.4-3.7c-1-0.4-2.1,0-2.6,1c-0.4,1,0,2.1,1,2.6l8.4,3.7c0.3,0.1,0.5,0.2,0.8,0.2
		c0.7,0,1.5-0.4,1.8-1.2C655.2,29,654.8,27.8,653.8,27.4L653.8,27.4z"/>
	<path class="st0" d="M708.9,24.6c-0.4-1-1.6-1.4-2.6-1l-8.4,3.7c-1,0.4-1.4,1.6-1,2.6c0.3,0.7,1,1.2,1.8,1.2c0.3,0,0.5-0.1,0.8-0.2
		l8.4-3.7C708.9,26.8,709.3,25.6,708.9,24.6L708.9,24.6z"/>
</g>
<g>
	<path class="st0" d="M546,65.3c0,1.1-0.9,2-2,2s-2-0.9-2-2s0.9-2,2-2S546,64.3,546,65.3L546,65.3z"/>
	<path class="st0" d="M544.4,73.8c-1.1-0.2-2.1,0.6-2.2,1.6c-0.5,3.6-3.6,6.6-8.2,8c-4.9,1.5-11.7,1-15.8-3.5
		c-0.7-0.8-2-0.8-2.8-0.1c-0.8,0.7-0.8,2-0.1,2.8c2.4,2.6,5.6,4.4,9.4,5.1c1.3,0.3,2.7,0.4,4.1,0.4c2.1,0,4.3-0.3,6.3-0.9
		c6-1.9,10.1-6,10.9-11.2C546.2,74.8,545.4,73.8,544.4,73.8L544.4,73.8z"/>
	<path class="st0" d="M571.5,56.4c-3.6-4.1-8.4-6.8-14.3-7.9c5.6-3.8,10.5-7.6,14-10.9c5.3-5,7.1-8.6,5.6-11.2
		c-1.6-2.9-6.4-2.8-15,0.1c-7.2,2.5-16.3,6.7-25.4,12c-1.6,0.9-3.1,1.8-4.7,2.8c-1.1-3.2-0.4-6.9,2.1-10c1.9-2.4,2.3-5.4,1.1-7.9
		c-1.3-2.6-4-4.2-7.4-4.2h-0.1c-11.9,0-23.6,4.7-32.8,13.2c-9.3,8.5-14.9,19.9-16,31.9c-1.2,14.4,3.4,28.2,13,38.7
		c9.5,10.3,22.9,16.2,36.8,16.2c7.5,0,14.5-1.4,20.9-4.1c5.8-2.5,11-6,15.4-10.5c4.1-4.2,7.3-9,9.5-14.3c2.1-5,3.3-10.4,3.4-15.4
		C577.8,67.7,575.6,61.3,571.5,56.4L571.5,56.4z M531.9,45.8c2.1-1.3,4.2-2.6,6.4-3.9c8.5-4.9,16.9-8.9,23.7-11.3
		c7.5-2.7,10.6-2.5,11.3-2.1c-0.1,0.5-0.6,2.5-5.6,7c-4.1,3.8-10.1,8.3-16.9,12.6c-2.2,1.4-4.4,2.7-6.7,4c-3.1,1.8-6.2,3.5-9.3,5
		c-0.6-1.8-1.4-3.5-2.3-5.2c-0.9-1.6-2-3.1-3.2-4.5C530.2,46.9,531,46.3,531.9,45.8L531.9,45.8z M531.3,58.8
		c-5.5,2.6-10.6,4.6-14.6,5.8c-0.2-1-0.6-2-1.1-2.9s-1.1-1.6-1.8-2.3c3-2.9,7.3-6.3,12.3-9.8c1.2,1.3,2.2,2.7,3.1,4.2
		C530,55.4,530.8,57.2,531.3,58.8L531.3,58.8z M573.8,75.1c-0.3,19.4-17.7,40.4-45.3,40.4c-12.8,0-25.2-5.5-33.9-15
		c-8.9-9.7-13.1-22.4-12-35.7c2-22.9,22.1-41.5,44.9-41.5h0.1c1.9,0,3.3,0.7,3.9,2c0.6,1.1,0.3,2.6-0.6,3.8
		c-3.5,4.5-4.4,10-2.4,14.6c-1,0.7-2.1,1.4-3.1,2l0,0c-6.2,4.2-11.5,8.4-14.9,11.9c-2.6-0.9-5.6-0.6-8,0.8
		c-4.1,2.3-9.4,13.3-10.4,15.4c-0.3,0.6-0.2,1.3,0.1,1.8c0.3,0.6,0.9,0.9,1.5,1c1.1,0.1,4.1,0.3,7.6,0.3c4.1,0,8.8-0.3,11-1.6
		c2.4-1.4,4.1-3.7,4.7-6.4c4.8-1.3,11-3.7,17.8-7c3.8-1.8,7.7-3.9,11.6-6.2c2-1.1,3.9-2.3,5.8-3.5l0,0
		C568.3,52.5,573.9,64.3,573.8,75.1L573.8,75.1z M513,66.9c-0.1,2-1.2,3.7-2.9,4.7c-1.8,1.1-8.2,1.2-13.4,1
		c2.4-4.6,5.7-10.1,7.5-11.1c1.7-1,3.9-1.1,5.6-0.1c1,0.5,1.8,1.3,2.4,2.3C512.8,64.7,513.1,65.8,513,66.9L513,66.9z"/>
	<path class="st0" d="M512.8,31.3c-4.3,0-7.8,3.5-7.8,7.8s3.5,7.8,7.8,7.8s7.8-3.5,7.8-7.8S517.1,31.3,512.8,31.3L512.8,31.3z
		 M512.8,43c-2.2,0-3.9-1.8-3.9-3.9c0-2.2,1.8-3.9,3.9-3.9c2.2,0,3.9,1.8,3.9,3.9C516.7,41.3,514.9,43,512.8,43L512.8,43z"/>
	<path class="st0" d="M503,83.8c-4.3,0-7.8,3.5-7.8,7.8s3.5,7.8,7.8,7.8s7.8-3.5,7.8-7.8S507.3,83.8,503,83.8L503,83.8z M503,95.6
		c-2.2,0-3.9-1.8-3.9-3.9c0-2.2,1.8-3.9,3.9-3.9c2.2,0,3.9,1.8,3.9,3.9S505.2,95.6,503,95.6L503,95.6z"/>
	<path class="st0" d="M522.6,95.6c-4.3,0-7.8,3.5-7.8,7.8s3.5,7.8,7.8,7.8s7.8-3.5,7.8-7.8C530.4,99.1,526.9,95.6,522.6,95.6
		L522.6,95.6z M522.6,107.3c-2.2,0-3.9-1.8-3.9-3.9c0-2.2,1.8-3.9,3.9-3.9c2.2,0,3.9,1.8,3.9,3.9S524.7,107.3,522.6,107.3
		L522.6,107.3z"/>
	<path class="st0" d="M546,91.7c-4.3,0-7.8,3.5-7.8,7.8s3.5,7.8,7.8,7.8s7.8-3.5,7.8-7.8S550.3,91.7,546,91.7L546,91.7z M546,103.3
		c-2.2,0-3.9-1.8-3.9-3.9c0-2.2,1.8-3.9,3.9-3.9c2.2,0,3.9,1.8,3.9,3.9C549.9,101.6,548.1,103.3,546,103.3L546,103.3z"/>
	<path class="st0" d="M561.6,72.1c-4.3,0-7.8,3.5-7.8,7.8s3.5,7.8,7.8,7.8s7.8-3.5,7.8-7.8C569.4,75.6,565.9,72.1,561.6,72.1
		L561.6,72.1z M561.6,83.8c-2.2,0-3.9-1.8-3.9-3.9c0-2.2,1.8-3.9,3.9-3.9c2.2,0,3.9,1.8,3.9,3.9C565.5,82.1,563.8,83.8,561.6,83.8
		L561.6,83.8z"/>
</g>
<path class="st0" d="M288.4,19.3H175.6c-4.2,0-7.6,3.4-7.6,7.6v84.8c0,4.2,3.4,7.6,7.6,7.6h112.8c4.2,0,7.6-3.4,7.6-7.6V26.9
	C296,22.6,292.6,19.3,288.4,19.3L288.4,19.3z M291,111.7c0,1.4-1.2,2.6-2.6,2.6H175.6c-1.4,0-2.6-1.2-2.6-2.6V26.9
	c0-1.4,1.2-2.6,2.6-2.6h112.8c1.4,0,2.6,1.2,2.6,2.6L291,111.7L291,111.7z"/>
<path class="st0" d="M215.8,36.5h64.5c1.4,0,2.5-1.1,2.5-2.5s-1.1-2.5-2.5-2.5h-64.5c-1.4,0-2.5,1.1-2.5,2.5
	C213.3,35.5,214.4,36.5,215.8,36.5L215.8,36.5z"/>
<path class="st0" d="M180.8,35c0.1,0.1,0.1,0.3,0.2,0.4c0.1,0.1,0.2,0.3,0.3,0.4c0.5,0.5,1.1,0.7,1.8,0.7c0.2,0,0.3,0,0.5,0
	s0.3-0.1,0.5-0.1c0.1-0.1,0.3-0.1,0.4-0.2c0.1-0.1,0.3-0.2,0.4-0.3c0.1-0.1,0.2-0.2,0.3-0.4c0.1-0.1,0.2-0.3,0.2-0.4
	c0.1-0.2,0.1-0.3,0.1-0.5s0-0.3,0-0.5s0-0.3,0-0.5s-0.1-0.3-0.1-0.5c-0.1-0.2-0.1-0.3-0.2-0.4c-0.1-0.1-0.2-0.3-0.3-0.4
	c-0.1-0.1-0.2-0.2-0.4-0.3c-0.1-0.1-0.3-0.2-0.4-0.2c-0.2-0.1-0.3-0.1-0.5-0.1c-0.3-0.1-0.7-0.1-1,0c-0.2,0-0.3,0.1-0.5,0.1
	c-0.2,0.1-0.3,0.1-0.4,0.2c-0.1,0.1-0.3,0.2-0.4,0.3c-0.1,0.1-0.2,0.2-0.3,0.4c-0.1,0.1-0.2,0.3-0.2,0.4c-0.1,0.1-0.1,0.3-0.1,0.5
	s-0.1,0.3-0.1,0.5s0,0.3,0.1,0.5C180.7,34.8,180.7,34.8,180.8,35L180.8,35z"/>
<path class="st0" d="M190.8,35c0.1,0.1,0.1,0.3,0.2,0.4c0.1,0.1,0.2,0.3,0.3,0.4c0.5,0.5,1.1,0.7,1.8,0.7c0.2,0,0.3,0,0.5,0
	s0.3-0.1,0.5-0.1c0.1-0.1,0.3-0.1,0.4-0.2c0.1-0.1,0.3-0.2,0.4-0.3c0.1-0.1,0.2-0.2,0.3-0.4c0.1-0.1,0.2-0.3,0.2-0.4
	c0.1-0.2,0.1-0.3,0.1-0.5s0-0.3,0-0.5s0-0.3,0-0.5s-0.1-0.3-0.1-0.5c-0.1-0.2-0.1-0.3-0.2-0.4c-0.1-0.1-0.2-0.3-0.3-0.4
	c-0.1-0.1-0.2-0.2-0.4-0.3c-0.1-0.1-0.3-0.2-0.4-0.2c-0.2-0.1-0.3-0.1-0.5-0.1c-0.3-0.1-0.7-0.1-1,0c-0.2,0-0.3,0.1-0.5,0.1
	c-0.2,0.1-0.3,0.1-0.4,0.2c-0.1,0.1-0.3,0.2-0.4,0.3c-0.1,0.1-0.2,0.2-0.3,0.4c-0.1,0.1-0.2,0.3-0.2,0.4c-0.1,0.1-0.1,0.3-0.1,0.5
	s-0.1,0.3-0.1,0.5s0,0.3,0.1,0.5C190.7,34.8,190.7,34.8,190.8,35L190.8,35z"/>
<path class="st0" d="M200.8,35c0.1,0.1,0.1,0.3,0.2,0.4c0.1,0.1,0.2,0.3,0.3,0.4c0.1,0.1,0.2,0.2,0.4,0.3c0.1,0.1,0.3,0.2,0.4,0.2
	c0.1,0.1,0.3,0.1,0.5,0.1s0.3,0,0.5,0s0.3,0,0.5,0s0.3-0.1,0.5-0.1c0.1-0.1,0.3-0.1,0.4-0.2c0.1-0.1,0.3-0.2,0.4-0.3
	c0.1-0.1,0.2-0.2,0.3-0.4c0.1-0.1,0.2-0.3,0.2-0.4c0.1-0.2,0.1-0.3,0.1-0.5s0-0.3,0-0.5s0-0.3,0-0.5s-0.1-0.3-0.1-0.5
	c-0.1-0.2-0.1-0.3-0.2-0.4c-0.1-0.1-0.2-0.3-0.3-0.4s-0.2-0.2-0.4-0.3c-0.1-0.1-0.3-0.2-0.4-0.2c-0.2-0.1-0.3-0.1-0.5-0.1
	c-0.3-0.1-0.7-0.1-1,0c-0.2,0-0.3,0.1-0.5,0.1c-0.2,0.1-0.3,0.1-0.4,0.2c-0.1,0.1-0.3,0.2-0.4,0.3c-0.1,0.1-0.2,0.2-0.3,0.4
	c-0.1,0.1-0.2,0.3-0.2,0.4c-0.1,0.1-0.1,0.3-0.1,0.5s-0.1,0.3-0.1,0.5s0,0.3,0.1,0.5C200.7,34.8,200.7,34.8,200.8,35L200.8,35z"/>
<path class="st0" d="M283.3,44H180.7c-1.4,0-2.5,1.1-2.5,2.5v60c0,1.4,1.1,2.5,2.5,2.5h29.8c1.4,0,2.5-1.1,2.5-2.5s-1.1-2.5-2.5-2.5
	h-27.3V49h97.7v55h-50.3c-1.4,0-2.5,1.1-2.5,2.5s1.1,2.5,2.5,2.5h52.8c1.4,0,2.5-1.1,2.5-2.5v-60C285.8,45.3,284.7,44,283.3,44
	L283.3,44z"/>
<path class="st0" d="M222.8,105.3c-0.1-0.2-0.1-0.3-0.2-0.4c-0.1-0.1-0.2-0.3-0.3-0.4s-0.2-0.2-0.4-0.3c-0.1-0.1-0.3-0.2-0.4-0.2
	c-0.2-0.1-0.3-0.1-0.5-0.1c-0.3-0.1-0.7-0.1-1,0c-0.2,0-0.3,0.1-0.5,0.1c-0.2,0.1-0.3,0.1-0.4,0.2c-0.1,0.1-0.3,0.2-0.4,0.3
	c-0.1,0.1-0.2,0.2-0.3,0.4c-0.1,0.1-0.2,0.3-0.2,0.4c-0.1,0.2-0.1,0.3-0.1,0.5s0,0.3,0,0.5s0,0.3,0,0.5s0.1,0.3,0.1,0.5
	c0.1,0.2,0.1,0.3,0.2,0.4c0.1,0.1,0.2,0.3,0.3,0.4s0.2,0.2,0.4,0.3c0.1,0.1,0.3,0.2,0.4,0.2c0.2,0.1,0.3,0.1,0.5,0.1s0.3,0,0.5,0
	c0.7,0,1.3-0.3,1.8-0.7c0.1-0.1,0.2-0.2,0.3-0.4c0.1-0.1,0.2-0.3,0.2-0.4c0.1-0.1,0.1-0.3,0.1-0.5s0-0.3,0-0.5s0-0.3,0-0.5
	C222.9,105.7,222.9,105.4,222.8,105.3L222.8,105.3z"/>
<path class="st0" d="M400.8,19.3h-41.5c-5.9,0-10.7,4.8-10.7,10.7v78.6c0,5.9,4.8,10.7,10.7,10.7h41.5c5.9,0,10.7-4.8,10.7-10.7V30
	C411.5,24,406.7,19.3,400.8,19.3L400.8,19.3z M407.4,108.6c0,3.6-3,6.6-6.6,6.6h-41.5c-3.6,0-6.6-3-6.6-6.6v-2.2h54.7V108.6z
	 M407.4,102.3h-54.7V35.8h54.7V102.3z M407.4,31.6h-54.7v-1.7c0-3.6,3-6.6,6.6-6.6h41.5c3.6,0,6.6,3,6.6,6.6V31.6z"/>
<path class="st0" d="M383.2,49.2c-1.1-0.2-2.2,0.5-2.4,1.6L374.5,83c-0.2,1.1,0.5,2.2,1.6,2.4c0.1,0,0.3,0,0.4,0c1,0,1.8-0.7,2-1.6
	l6.3-32.2C385.1,50.5,384.3,49.3,383.2,49.2L383.2,49.2z"/>
<path class="st0" d="M399.2,67.3C399.2,67.3,399.2,67.2,399.2,67.3c0-0.1,0-0.2,0-0.2V67v-0.1v-0.1v-0.1v-0.1v-0.1v-0.1
	c0,0,0,0,0-0.1c0,0,0-0.1-0.1-0.1c0,0,0,0,0-0.1L399,66l0,0l-0.1-0.1l-9.5-9.5c-0.8-0.8-2.1-0.8-2.9,0s-0.8,2.1,0,2.9l8,8l-7.9,7.9
	c-0.8,0.8-0.8,2.1,0,2.9c0.4,0.4,0.9,0.6,1.4,0.6s1-0.2,1.4-0.6l9.2-9.3l0.1-0.1l0,0l0.1-0.1c0,0,0,0,0-0.1c0,0,0-0.1,0.1-0.1
	c0,0,0,0,0-0.1v-0.1v-0.1V68v-0.1v-0.1v-0.1v-0.1v-0.1v-0.1C399.2,67.4,399.2,67.3,399.2,67.3L399.2,67.3L399.2,67.3z"/>
<path class="st0" d="M373,75.3l-8-8l7.9-7.9c0.8-0.8,0.8-2.1,0-2.9c-0.8-0.8-2.1-0.8-2.9,0l-9.3,9.3l-0.1,0.1l0,0c0,0,0,0.1-0.1,0.1
	c0,0,0,0,0,0.1c0,0,0,0.1-0.1,0.1v0.1v0.1v0.1v0.1v0.1v0.1v0.1V67v0v0.1v0.1v0.1v0.1v0.1v0.1v0.1v0.1v0.1V68v0.1v0.1c0,0,0,0,0,0.1
	c0,0,0,0.1,0.1,0.1c0,0,0,0,0,0.1l0.1,0.1l0,0l0.1,0.1l9.5,9.5c0.4,0.4,0.9,0.6,1.4,0.6s1-0.2,1.4-0.6
	C373.8,77.3,373.8,76.1,373,75.3L373,75.3z"/>
<path class="st0" d="M382.4,109.8c-0.1-0.2-0.1-0.3-0.2-0.4s-0.2-0.3-0.3-0.4c-0.1-0.1-0.2-0.2-0.4-0.3c-0.1-0.1-0.3-0.2-0.4-0.2
	c-0.2-0.1-0.3-0.1-0.5-0.1c-0.3-0.1-0.7-0.1-1,0c-0.2,0-0.3,0.1-0.5,0.1c-0.2,0.1-0.3,0.1-0.4,0.2s-0.3,0.2-0.4,0.3
	c-0.1,0.1-0.2,0.2-0.3,0.4c-0.1,0.1-0.2,0.3-0.2,0.4c-0.1,0.2-0.1,0.3-0.1,0.5s0,0.3,0,0.5s0,0.3,0,0.5s0.1,0.3,0.1,0.5
	c0.1,0.2,0.1,0.3,0.2,0.4s0.2,0.3,0.3,0.4c0.1,0.1,0.2,0.2,0.4,0.3c0.1,0.1,0.3,0.2,0.4,0.2c0.2,0.1,0.3,0.1,0.5,0.1s0.3,0,0.5,0
	c0.7,0,1.3-0.3,1.8-0.7c0.1-0.1,0.2-0.2,0.3-0.4c0.1-0.1,0.2-0.3,0.2-0.4c0.1-0.1,0.1-0.3,0.1-0.5s0-0.3,0-0.5s0-0.3,0-0.5
	C382.5,110.2,382.5,109.9,382.4,109.8L382.4,109.8z"/>
<g>
	<path class="st0" d="M221.2,69.7c0.7,0,1.4-0.6,1.4-1.4c0-0.7-0.6-1.4-1.4-1.4c-0.7,0-1.4,0.6-1.4,1.4
		C219.9,69.1,220.5,69.7,221.2,69.7z"/>
	<path class="st0" d="M254.1,72.5l-2.2-0.6c-0.5-2.2-1.4-4.3-2.6-6.2l1.2-2c0.3-0.5,0.2-1.2-0.2-1.7l-3.8-3.8
		c-0.4-0.4-1.1-0.5-1.7-0.2l-2,1.2c-1.9-1.2-4-2.1-6.2-2.6l-0.6-2.2c-0.2-0.6-0.7-1-1.3-1h-5.4c-0.6,0-1.2,0.4-1.3,1l-0.6,2.2
		c-2.2,0.5-4.3,1.4-6.2,2.6l-2-1.2c-0.5-0.3-1.2-0.2-1.7,0.2l-3.8,3.8c-0.4,0.4-0.5,1.1-0.2,1.7l1.2,2c-1.2,1.9-2.1,4-2.6,6.2
		l-2.2,0.6c-0.6,0.2-1,0.7-1,1.3v5.4c0,0.6,0.4,1.2,1,1.3l2.2,0.6c0.5,2.2,1.4,4.3,2.6,6.2l-1.2,2c-0.3,0.5-0.2,1.2,0.2,1.7l3.8,3.8
		c0.4,0.4,1.1,0.5,1.7,0.2l2-1.2c1.9,1.2,4,2.1,6.2,2.6l0.6,2.2c0.2,0.6,0.7,1,1.3,1h5.4c0.6,0,1.2-0.4,1.3-1l0.6-2.2
		c2.2-0.5,4.3-1.4,6.2-2.6l2,1.2c0.5,0.3,1.2,0.2,1.7-0.2l3.8-3.8c0.4-0.4,0.5-1.1,0.2-1.7l-1.2-2c1.2-1.9,2.1-4,2.6-6.2l2.2-0.6
		c0.6-0.2,1-0.7,1-1.3v-5.4C255.1,73.2,254.7,72.6,254.1,72.5z M252.4,78.2l-2,0.5c-0.5,0.1-0.9,0.5-1,1.1c-0.5,2.4-1.4,4.7-2.8,6.7
		c-0.3,0.4-0.3,1,0,1.5l1.1,1.8l-2.3,2.3l-1.8-1.1c-0.5-0.3-1-0.3-1.5,0c-2,1.4-4.3,2.3-6.7,2.8c-0.5,0.1-0.9,0.5-1.1,1l-0.5,2h-3.3
		l-0.5-2c-0.1-0.5-0.5-0.9-1.1-1c-2.4-0.5-4.7-1.4-6.7-2.8c-0.4-0.3-1-0.3-1.5,0l-1.8,1.1l-2.3-2.3l1.1-1.8c0.3-0.5,0.3-1,0-1.5
		c-1.4-2-2.3-4.3-2.8-6.7c-0.1-0.5-0.5-0.9-1-1.1l-2-0.5v-3.3l2-0.5c0.5-0.1,0.9-0.5,1-1.1c0.5-2.4,1.4-4.7,2.8-6.7
		c0.3-0.4,0.3-1,0-1.5l-1.1-1.8l2.3-2.3l1.8,1.1c0.5,0.3,1,0.3,1.5,0c2-1.4,4.3-2.3,6.7-2.8c0.5-0.1,0.9-0.5,1.1-1l0.5-2h3.3l0.5,2
		c0.1,0.5,0.5,0.9,1.1,1c2.4,0.5,4.7,1.4,6.7,2.8c0.4,0.3,1,0.3,1.5,0l1.8-1.1l2.3,2.3l-1.1,1.8c-0.3,0.5-0.3,1,0,1.5
		c1.4,2,2.3,4.3,2.8,6.7c0.1,0.5,0.5,0.9,1,1.1l2,0.5V78.2z"/>
	<path class="st0" d="M232.1,61.6c-2.6,0-5.2,0.7-7.5,2c-0.6,0.4-0.9,1.2-0.5,1.9c0.4,0.6,1.2,0.9,1.9,0.5c1.8-1.1,4-1.6,6.1-1.6
		c6.7,0,12.2,5.5,12.2,12.2s-5.5,12.2-12.2,12.2c-6.7,0-12.2-5.5-12.2-12.2c0-1,0.1-2,0.3-2.9c0.2-0.7-0.3-1.5-1-1.6
		c-0.7-0.2-1.5,0.3-1.6,1c-0.3,1.2-0.4,2.4-0.4,3.6c0,8.2,6.7,14.9,14.9,14.9S247,84.7,247,76.5S240.3,61.6,232.1,61.6z"/>
</g>
<g>
	<g>
		<path class="st0" d="M238.9,155.5c0,1.4-1.1,2.5-2.5,2.5c-1.4,0-2.5-1.1-2.5-2.5c0-1.4,1.1-2.5,2.5-2.5
			C237.7,153,238.9,154.1,238.9,155.5L238.9,155.5z"/>
		<path class="st0" d="M238.9,155.5"/>
		<path class="st0" d="M236.4,164.7c-0.9,0-1.7,0.7-1.7,1.7v5c0,0.9,0.7,1.7,1.7,1.7c0.9,0,1.7-0.7,1.7-1.7v-5
			C238,165.4,237.3,164.7,236.4,164.7L236.4,164.7z"/>
		<path class="st0" d="M236.4,164.7"/>
	</g>
	<path class="st0" d="M221,156.1v-2.3c0-1.3,1-2.3,2.3-2.3l0,0c1.3,0,2.3-1,2.3-2.3c0-1.3-1-2.3-2.3-2.3l0,0c-3.9,0-6.9,3.1-6.9,6.9
		v2.3c0,0.8-0.4,1.7-0.9,2.2l-3,3c-0.5,0.5-0.6,1-0.7,1.7c0,0.6,0.3,1.2,0.6,1.7l3.1,3.1c0.6,0.6,0.9,1.4,0.9,2.2v2.4
		c0,3.8,3.1,6.9,6.9,6.9c1.3,0,2.3-1,2.3-2.3s-1-2.3-2.3-2.3c-1.3,0-2.3-1-2.3-2.3v-2.4c0-2-0.8-4-2.3-5.5l-1.4-1.4l1.3-1.3
		C220.1,160.3,221,158.3,221,156.1L221,156.1z"/>
	<path class="st0" d="M251.8,156.1c0,2.2,0.8,4.2,2.4,5.6l1.3,1.3l-1.4,1.4c-1.5,1.5-2.3,3.4-2.3,5.5v2.4c0,1.3-1,2.3-2.3,2.3
		c-1.3,0-2.3,1-2.3,2.3s1,2.3,2.3,2.3c3.8,0,6.9-3.1,6.9-6.9v-2.4c0-0.8,0.4-1.7,0.9-2.2l3.1-3.1c0.4-0.5,0.6-1,0.6-1.7
		c-0.1-0.6-0.3-1.2-0.7-1.7l-3-3c-0.6-0.6-0.9-1.4-0.9-2.2v-2.3c0-3.8-3.1-6.9-6.9-6.9l0,0c-1.3,0-2.3,1-2.3,2.3
		c0,1.3,1,2.3,2.3,2.3l0,0c1.3,0,2.3,1,2.3,2.3V156.1L251.8,156.1z"/>
</g>
</svg>
