<?xml version="1.0" encoding="utf-8"?>
<!-- Generator: Adobe Illustrator 22.0.0, SVG Export Plug-In . SVG Version: 6.00 Build 0)  -->
<svg version="1.1" id="Camada_1" xmlns="http://www.w3.org/2000/svg" xmlns:xlink="http://www.w3.org/1999/xlink" x="0px" y="0px"
	 viewBox="0 0 92.9 37.7" style="enable-background:new 0 0 92.9 37.7;" xml:space="preserve">
<style type="text/css">
	.st0{display:none;}
	.st1{display:inline;fill:#001168;}
	.st2{fill:#FFFFFF;}
	.st3{fill:#18153D;}
	.st4{fill:none;}
	.st5{fill:#18153D;stroke:#18153D;stroke-width:0.5;stroke-miterlimit:10;}
	.st6{fill:#FFFFFF;stroke:#FFFFFF;stroke-width:0.5;stroke-miterlimit:10;}
</style>
<g id="Camada_2_1_" class="st0">
	<rect x="-19.3" y="-10" class="st1" width="129.4" height="32"/>
</g>
<g>
	<g>
		<g>
			<path class="st2" d="M88.5,14.8L84,12.1l6.8-9L88.5,14.8L88.5,14.8z M81.3,14.1v-3.3l7.4-6.5C88.4,4.5,81.4,13.9,81.3,14.1
				L81.3,14.1z M80.8,10l-2.6-1.6l10.5-5.3L80.8,10L80.8,10z M91.3,0.7L77,7.9c-0.1,0.1-0.2,0.2-0.2,0.4s0.1,0.3,0.2,0.4l3.3,2.1
				v4.7c0,0.2,0.1,0.4,0.3,0.4c0.2,0.1,0.4,0,0.5-0.2l2.3-3l5.1,3.1c0.1,0.1,0.3,0.1,0.4,0s0.2-0.2,0.3-0.3l2.7-14.3l0,0
				C92,0.8,91.6,0.5,91.3,0.7L91.3,0.7z"/>
			<path class="st2" d="M80.8,16.1c-0.1,0-0.1,0-0.2,0c-0.3-0.1-0.5-0.4-0.5-0.7v-4.5l-3.2-2c-0.2-0.1-0.3-0.3-0.3-0.6
				s0.2-0.5,0.4-0.6l14.3-7.2c0.2-0.1,0.5-0.1,0.7,0c0.2,0.2,0.3,0.5,0.3,0.7l-2.7,14.3c0,0.2-0.2,0.4-0.4,0.5
				c-0.2,0.1-0.5,0.1-0.7,0l-4.9-3l-2.2,2.8C81.1,16,80.9,16.1,80.8,16.1z M91.5,0.9C91.4,0.9,91.4,0.9,91.5,0.9L91.5,0.9L77.1,8.1
				C77,8.1,77,8.2,77,8.3s0,0.1,0.1,0.2l3.4,2.2v4.8c0,0.1,0.1,0.2,0.1,0.2c0.1,0,0.2,0,0.2-0.1l2.5-3.2l5.3,3.2c0.1,0,0.1,0,0.2,0
				s0.1-0.1,0.1-0.1l2.7-14.3C91.6,1,91.6,0.9,91.5,0.9C91.6,0.9,91.5,0.9,91.5,0.9z M88.6,15.2l-5-3.1l0.2-0.2l7.4-9.8L88.6,15.2z
				 M84.3,11.9l4,2.5l2-10.4L84.3,11.9z M80.9,14.9v-4.2l0.1-0.1l9.1-8l-1.4,1.9c-0.2,0.2-7.2,9.6-7.4,9.8L80.9,14.9z M81.4,10.8
				v2.6c1.1-1.5,3.8-5.1,5.5-7.4L81.4,10.8z M80.8,10.3l-3.1-2L90.3,2L80.8,10.3z M78.6,8.4l2.1,1.3L87,4.2L78.6,8.4z"/>
		</g>
	</g>
</g>
<g>
	<path class="st2" d="M16.5,9.4h-15C1,9.4,0.6,9,0.6,8.5S1,7.6,1.5,7.6h15c0.5,0,0.9,0.4,0.9,0.9S17,9.4,16.5,9.4z"/>
	<path class="st2" d="M16.5,4.4h-15C1,4.4,0.6,4,0.6,3.5S1,2.6,1.5,2.6h15c0.5,0,0.9,0.4,0.9,0.9S17,4.4,16.5,4.4z"/>
	<path class="st2" d="M16.5,14.4h-15c-0.5,0-0.9-0.4-0.9-0.9s0.4-0.9,0.9-0.9h15c0.5,0,0.9,0.4,0.9,0.9C17.4,13.9,17,14.4,16.5,14.4
		z"/>
</g>
<path class="st2" d="M64.4,7.9H59c-0.5,0-0.9-0.4-0.9-0.9V1.6c0-0.5,0.4-0.9,0.9-0.9h5.4c0.5,0,0.9,0.4,0.9,0.9V7
	C65.3,7.5,64.9,7.9,64.4,7.9z M59.9,6.1h3.5V2.6h-3.5V6.1z"/>
<path class="st2" d="M72.3,7.9h-5.4C66.4,7.9,66,7.5,66,7V1.6c0-0.5,0.4-0.9,0.9-0.9h5.4c0.5,0,0.9,0.4,0.9,0.9V7
	C73.3,7.5,72.9,7.9,72.3,7.9z M67.9,6.1h3.5V2.6h-3.5V6.1z"/>
<path class="st2" d="M72.3,15.8h-5.4c-0.5,0-0.9-0.4-0.9-0.9V9.5c0-0.5,0.4-0.9,0.9-0.9h5.4c0.5,0,0.9,0.4,0.9,0.9v5.4
	C73.3,15.4,72.9,15.8,72.3,15.8z M67.9,13.9h3.5v-3.5h-3.5V13.9z"/>
<path class="st2" d="M64.4,15.8H59c-0.5,0-0.9-0.4-0.9-0.9V9.5c0-0.5,0.4-0.9,0.9-0.9h5.4c0.5,0,0.9,0.4,0.9,0.9v5.4
	C65.3,15.4,64.9,15.8,64.4,15.8z M59.9,13.9h3.5v-3.5h-3.5V13.9z"/>
<g>
	<g>
		<g>
			<path class="st3" d="M88.5,34.8L84,32.1l6.8-9L88.5,34.8L88.5,34.8z M81.3,34.1v-3.3l7.4-6.5C88.4,24.5,81.4,33.9,81.3,34.1
				L81.3,34.1z M80.8,30l-2.6-1.6l10.5-5.3L80.8,30L80.8,30z M91.3,20.7L77,27.9c-0.1,0.1-0.2,0.2-0.2,0.4c0,0.2,0.1,0.3,0.2,0.4
				l3.3,2.1v4.7c0,0.2,0.1,0.4,0.3,0.4c0.2,0.1,0.4,0,0.5-0.2l2.3-3l5.1,3.1c0.1,0.1,0.3,0.1,0.4,0s0.2-0.2,0.3-0.3l2.7-14.3l0,0
				C92,20.8,91.6,20.5,91.3,20.7L91.3,20.7z"/>
			<path class="st3" d="M80.8,36.1c-0.1,0-0.1,0-0.2,0c-0.3-0.1-0.5-0.4-0.5-0.7v-4.5l-3.2-2c-0.2-0.1-0.3-0.3-0.3-0.6
				c0-0.3,0.2-0.5,0.4-0.6l14.3-7.2c0.2-0.1,0.5-0.1,0.7,0c0.2,0.2,0.3,0.5,0.3,0.7l-2.7,14.3c0,0.2-0.2,0.4-0.4,0.5
				c-0.2,0.1-0.5,0.1-0.7,0l-4.9-3l-2.2,2.8C81.1,36,80.9,36.1,80.8,36.1z M91.5,20.9C91.4,20.9,91.4,20.9,91.5,20.9L91.5,20.9
				l-14.4,7.2c-0.1,0-0.1,0.1-0.1,0.2s0,0.1,0.1,0.2l3.4,2.2v4.8c0,0.1,0.1,0.2,0.1,0.2c0.1,0,0.2,0,0.2-0.1l2.5-3.2l5.3,3.2
				c0.1,0,0.1,0,0.2,0s0.1-0.1,0.1-0.1l2.7-14.3C91.6,21,91.6,20.9,91.5,20.9C91.6,20.9,91.5,20.9,91.5,20.9z M88.6,35.2l-5-3.1
				l0.2-0.2l7.4-9.8L88.6,35.2z M84.3,31.9l4,2.5l2-10.4L84.3,31.9z M80.9,34.9v-4.2l0.1-0.1l9.1-8l-1.4,1.9
				c-0.2,0.2-7.2,9.6-7.4,9.8L80.9,34.9z M81.4,30.8v2.6c1.1-1.5,3.8-5.1,5.5-7.4L81.4,30.8z M80.8,30.3l-3.1-2L90.3,22L80.8,30.3z
				 M78.6,28.4l2.1,1.3l6.3-5.5L78.6,28.4z"/>
		</g>
	</g>
</g>
<g>
	<path class="st3" d="M16.5,29.4h-15c-0.5,0-0.9-0.4-0.9-0.9s0.4-0.9,0.9-0.9h15c0.5,0,0.9,0.4,0.9,0.9S17,29.4,16.5,29.4z"/>
	<path class="st3" d="M16.5,24.4h-15c-0.5,0-0.9-0.4-0.9-0.9s0.4-0.9,0.9-0.9h15c0.5,0,0.9,0.4,0.9,0.9S17,24.4,16.5,24.4z"/>
	<path class="st3" d="M16.5,34.4h-15c-0.5,0-0.9-0.4-0.9-0.9s0.4-0.9,0.9-0.9h15c0.5,0,0.9,0.4,0.9,0.9C17.4,33.9,17,34.4,16.5,34.4
		z"/>
</g>
<path class="st3" d="M64.4,27.9H59c-0.5,0-0.9-0.4-0.9-0.9v-5.4c0-0.5,0.4-0.9,0.9-0.9h5.4c0.5,0,0.9,0.4,0.9,0.9V27
	C65.3,27.5,64.9,27.9,64.4,27.9z M59.9,26.1h3.5v-3.5h-3.5V26.1z"/>
<path class="st3" d="M72.3,27.9h-5.4c-0.5,0-0.9-0.4-0.9-0.9v-5.4c0-0.5,0.4-0.9,0.9-0.9h5.4c0.5,0,0.9,0.4,0.9,0.9V27
	C73.3,27.5,72.9,27.9,72.3,27.9z M67.9,26.1h3.5v-3.5h-3.5V26.1z"/>
<path class="st3" d="M72.3,35.8h-5.4c-0.5,0-0.9-0.4-0.9-0.9v-5.4c0-0.5,0.4-0.9,0.9-0.9h5.4c0.5,0,0.9,0.4,0.9,0.9v5.4
	C73.3,35.4,72.9,35.8,72.3,35.8z M67.9,33.9h3.5v-3.5h-3.5V33.9z"/>
<path class="st3" d="M64.4,35.8H59c-0.5,0-0.9-0.4-0.9-0.9v-5.4c0-0.5,0.4-0.9,0.9-0.9h5.4c0.5,0,0.9,0.4,0.9,0.9v5.4
	C65.3,35.4,64.9,35.8,64.4,35.8z M59.9,33.9h3.5v-3.5h-3.5V33.9z"/>
<g>
	<path class="st2" d="M51,10.4c-1.8,0-2.7,1.3-2.7,3.5v2.7c2-0.3,3.8-1.3,5-2.8V13C53.3,11.6,52.7,10.4,51,10.4z"/>
	<path class="st2" d="M47.1,0.5c-4.4,0-8,3.6-8,8c0,3.8,2.6,7,6.2,7.8V11c0-0.7,0-1.6,0-2.3c0-0.8,0.7-1.5,1.5-1.5l0,0
		c0.8,0,1.4,0.6,1.5,1.4l0,0c0,0.4,0.5,0.6,0.8,0.3c0.5-0.4,1.5-0.9,3-0.9c1.3,0,2.3,0.4,3.1,1.1c0-0.2,0-0.3,0-0.5
		C55.1,4.1,51.5,0.5,47.1,0.5z M41.8,11c0-0.8-0.7-1.5-1.5-1.5c0.8,0,1.5-0.7,1.5-1.5c0,0.8,0.7,1.5,1.5,1.5
		C42.4,9.5,41.8,10.2,41.8,11z M43.9,8c0-1.6-1.3-2.9-2.9-2.9c1.6,0,2.9-1.3,2.9-2.9c0,1.6,1.3,2.9,2.9,2.9
		C45.2,5.1,43.9,6.4,43.9,8z"/>
</g>
<g>
	<path class="st3" d="M51,30.7c-1.8,0-2.7,1.3-2.7,3.5v2.7c2-0.3,3.8-1.3,5-2.8v-0.7C53.3,32,52.7,30.7,51,30.7z"/>
	<path class="st3" d="M47.1,20.9c-4.4,0-8,3.6-8,8c0,3.8,2.6,7,6.2,7.8v-5.3c0-0.7,0-1.6,0-2.3c0-0.8,0.7-1.5,1.5-1.5l0,0
		c0.8,0,1.4,0.6,1.5,1.4l0,0c0,0.4,0.5,0.6,0.8,0.3c0.6-0.6,1.6-1.1,3.1-1.1c1.3,0,2.3,0.4,3.1,1.1c0-0.2,0-0.3,0-0.5
		C55.1,24.5,51.5,20.9,47.1,20.9z M41.8,31.3c0-0.8-0.7-1.5-1.5-1.5c0.8,0,1.5-0.7,1.5-1.5c0,0.8,0.7,1.5,1.5,1.5
		C42.4,29.9,41.8,30.5,41.8,31.3z M43.9,28.4c0-1.6-1.3-2.9-2.9-2.9c1.6,0,2.9-1.3,2.9-2.9c0,1.6,1.3,2.9,2.9,2.9
		C45.2,25.5,43.9,26.8,43.9,28.4z"/>
</g>
<rect x="20.3" y="20.8" class="st4" width="15.5" height="16"/>
<g>
	<path class="st5" d="M35.6,27.1l-7.4-6.2c-0.1-0.1-0.3-0.1-0.5,0l-7.4,6.2c-0.2,0.2-0.2,0.4-0.1,0.7c0.1,0.2,0.4,0.3,0.6,0.1l7.1-6
		l7.1,6c0.1,0.1,0.2,0.1,0.2,0.1c0.1,0,0.2-0.1,0.3-0.2C35.9,27.5,35.8,27.3,35.6,27.1L35.6,27.1z"/>
	<path class="st5" d="M33.7,28c-0.2,0-0.4,0.2-0.4,0.5v7.4h-3.2v-4.1c0-1.3-0.9-2.3-2-2.3s-2,1-2,2.3v4.1h-3.2v-7.4
		c0-0.3-0.2-0.5-0.4-0.5c-0.2,0-0.4,0.2-0.4,0.5v7.9c0,0.3,0.2,0.5,0.4,0.5h4c0.2,0,0.4-0.2,0.4-0.4l0,0V32c0-0.8,0.5-1.4,1.2-1.4
		s1.2,0.6,1.2,1.4v4.5l0,0c0,0.2,0.2,0.4,0.4,0.4h4c0.2,0,0.4-0.2,0.4-0.5v-7.9C34.1,28.2,33.9,28,33.7,28L33.7,28z"/>
</g>
<g>
	<path class="st6" d="M35.6,7l-7.4-6.2c-0.1-0.1-0.3-0.1-0.5,0L20.3,7c-0.2,0.2-0.2,0.4-0.1,0.7c0.1,0.2,0.4,0.3,0.6,0.1l7.1-6
		l7.1,6c0.1,0.1,0.2,0.1,0.2,0.1c0.1,0,0.2-0.1,0.3-0.2C35.9,7.5,35.8,7.2,35.6,7L35.6,7z"/>
	<path class="st6" d="M33.7,7.9c-0.2,0-0.4,0.2-0.4,0.5v7.4h-3.2v-4.1c0-1.3-0.9-2.3-2-2.3s-2,1-2,2.3v4.1h-3.2V8.3
		c0-0.3-0.2-0.5-0.4-0.5C22.2,7.9,22,8.1,22,8.3v7.9c0,0.3,0.2,0.5,0.4,0.5h4c0.2,0,0.4-0.2,0.4-0.4l0,0v-4.5c0-0.8,0.5-1.4,1.2-1.4
		s1.2,0.6,1.2,1.4v4.5l0,0c0,0.2,0.2,0.4,0.4,0.4h4c0.2,0,0.4-0.2,0.4-0.5V8.3C34.1,8.1,33.9,7.9,33.7,7.9L33.7,7.9z"/>
</g>
</svg>
