<?xml version="1.0" encoding="utf-8"?>
<!-- Generator: Adobe Illustrator 22.0.0, SVG Export Plug-In . SVG Version: 6.00 Build 0)  -->
<svg version="1.1" id="Camada_1" xmlns="http://www.w3.org/2000/svg" xmlns:xlink="http://www.w3.org/1999/xlink" x="0px" y="0px"
	 viewBox="0 0 500 500" style="enable-background:new 0 0 500 500;" xml:space="preserve">
<style type="text/css">
	.st0{fill:url(#SVGID_1_);}
	.st1{fill:#251C41;}
	.st2{fill:#091B49;}
	.st3{fill:url(#SVGID_2_);}
	.st4{fill:url(#SVGID_3_);}
	.st5{fill:url(#SVGID_4_);}
</style>
<g>
	
		<linearGradient id="SVGID_1_" gradientUnits="userSpaceOnUse" x1="110.7" y1="690.7" x2="389.3" y2="969.3" gradientTransform="matrix(1 0 0 1 0 -580)">
		<stop  offset="0" style="stop-color:#131226"/>
		<stop  offset="0.5" style="stop-color:#131226"/>
		<stop  offset="1" style="stop-color:#1F2449"/>
	</linearGradient>
	<circle class="st0" cx="250" cy="250" r="197"/>
	<path class="st1" d="M236.5,131.1c0,14.7-20,26.7-44.6,26.7c-5.1,0-21.4,1.5-34.1-9.5c-1.2-1.1-2.9-2.5-4.5-4.3
		c-1.5-1.6-2.9-3.4-4-5.5l0,0c-1.2-2.2-2-4.7-1.9-7.4c0.4-14.1,24.1-26.7,44.6-26.7c10.3,0,19.9,2.1,27.4,5.6
		c0.3,0.1,0.6,0.3,0.8,0.4C230.1,115.4,236.5,122.8,236.5,131.1z"/>
	<path class="st1" d="M279.6,95.3c0,8.1-11.9,14.7-26.7,14.7c-9.8,0-18.3-2.9-23-7.2c-2.3-2.2-3.7-4.8-3.7-7.5
		c0-8.1,11.9-14.7,26.7-14.7c6,0,11.5,1.1,16,2.9C275.4,86.2,279.6,90.5,279.6,95.3z"/>
	<path class="st1" d="M175.2,175.4c0,3.8-3.1,7-7,7c-2.2,0-4.2-1-5.4-2.6c-1-1.2-1.5-2.7-1.5-4.4c0-3.8,3.1-7,7-7
		c1.8,0,3.4,0.7,4.6,1.7C174.3,171.5,175.2,173.3,175.2,175.4z"/>
	<path class="st1" d="M146.5,154.3c0,2.5-2,4.6-4.4,4.6c-1.6,0-3.1-0.9-3.8-2.3c-0.4-0.7-0.6-1.4-0.6-2.3c0-2.5,2-4.6,4.4-4.6
		c1.2,0,2.3,0.5,3.1,1.3C146,151.9,146.5,153,146.5,154.3z"/>
	<path class="st2" d="M240.5,133.4c0,15.3-20.6,27.6-46,27.6c-5.3,0-22.1,1.6-35.2-9.8c-2-1.7-5.2-5.4-7.6-9c0.5,0.3,1,1.5,1.5,1.8
		c1.1,0.7,2.3,1.2,3.5,1.6c1.9,0.6,3.9,0.8,5.9,0.9c16.2,0.9,32-5.7,45.8-14.4c4-2.5,8-5.4,10.5-9.5c2.2-3.6,3-8.4,1.2-12.2
		c0,0,0,0,0-0.1C232.4,115.4,240.5,123.8,240.5,133.4z"/>
	<path class="st2" d="M282.9,97.4c0,8.7-12.1,15.8-27,15.8c-3.1,0-13,0.9-20.7-5.6c-1.2-1-3.1-2.6-4.5-4.7c0.4,0.3,0.9,0.5,1.3,0.8
		c0.5,0.3,1.1,0.5,1.7,0.7c1.1,0.4,2.3,0.5,3.5,0.5c9.5,0.5,18.8-3.2,26.9-8.3c2.4-1.4,4.7-3.1,6.2-5.4c1.3-2,1.7-4.7,0.7-6.9
		c0-0.1,0-0.1-0.1-0.2C278.2,87.1,282.9,91.9,282.9,97.4z"/>
	<path class="st2" d="M147.7,155.4c0,2.5-2.1,4.6-4.8,4.6c-0.6,0-2.3,0.3-3.7-1.6c-0.2-0.3-0.5-0.8-0.8-1.3c0.1,0.1,0.2,0.2,0.3,0.3
		s0.2,0.1,0.3,0.2c0.2,0.1,0.4,0.1,0.6,0.2c1.7,0.1,3.3-0.9,4.8-2.4c0.4-0.4,0.8-0.9,1.1-1.6c0.2-0.6,0.3-1.3,0.2-1.9v-0.1
		C146.9,152.4,147.7,153.8,147.7,155.4z"/>
	<path class="st2" d="M176.2,176.5c0,3.9-3.2,7.1-7.2,7.1c-0.8,0-3.5,0.4-5.5-2.5c-0.1-0.2-0.3-0.4-0.5-0.7
		c-0.2-0.4-0.5-0.9-0.7-1.4c0.3,0.3,0.5,0.5,0.8,0.7s0.6,0.2,0.9,0.2c2.5,0.2,5-1.4,7.2-3.7c0.6-0.6,1.3-1.4,1.6-2.4
		c0.3-0.9,0.5-2,0.2-3c0-0.1,0-0.1,0-0.2C174.9,171.9,176.2,174.1,176.2,176.5z"/>
	<path class="st1" d="M371.5,342.5c0,17.5-14.9,31.7-33.2,31.7c-13.3,0-24.8-7.5-30.1-18.4c-2-4.1-3.1-8.6-3.1-13.4
		c0-17.5,14.9-31.7,33.2-31.7c7.1,0,13.7,2.1,19.2,5.8C366,322.3,371.5,331.8,371.5,342.5z"/>
	<path class="st1" d="M302.4,367.4c0,4.2-3.4,7.5-7.5,7.5c-2.9,0-5.5-1.7-6.7-4.1c-0.5-1-0.8-2.2-0.8-3.4c0-4.2,3.4-7.5,7.5-7.5
		c2.2,0,4.2,0.9,5.5,2.4C301.7,363.6,302.4,365.4,302.4,367.4z"/>
	<path class="st1" d="M371.5,380.3c0,2.3-1.9,4.1-4.1,4.1c-1.6,0-3-0.9-3.7-2.3c-0.3-0.6-0.4-1.2-0.4-1.8c0-2.3,1.9-4.1,4.1-4.1
		c1,0,2,0.4,2.7,1C371,377.9,371.5,379.1,371.5,380.3z"/>
	<path class="st2" d="M373.7,345.5c0,18.4-14.8,33.3-33.2,33.3c-3.8,0-15.9,1.9-25.4-11.9c-1.4-2.1-3.8-5.5-5.5-9.8
		c0,0.1,0.1,0.1,0.1,0.2c1.1,1.2,2.3,2.3,3.5,3c1.4,0.8,2.8,1,4.3,1.1c11.7,1,23.1-6.8,33.1-17.4c2.9-3.1,5.8-6.5,7.6-11.4
		c1.6-4.3,2.1-10.1,0.9-14.6v-0.1C367.9,323.9,373.7,334,373.7,345.5z"/>
	<path class="st2" d="M372,380.8c0,2.3-1.9,4.2-4.3,4.2c-0.5,0-2.1,0.2-3.3-1.5c-0.2-0.3-0.5-0.7-0.7-1.2l0.1,0.1
		c0.1,0.1,0.2,0.2,0.3,0.3c0.2,0.1,0.4,0.1,0.5,0.1c1.5,0.1,3-0.9,4.3-2.2c0.4-0.4,0.7-0.8,1-1.4c0.2-0.6,0.3-1.3,0.1-1.9l0.1,0.1
		C371.4,378.1,372,379.4,372,380.8z"/>
	<path class="st2" d="M303.6,368.6c0,4.2-3.5,7.6-7.8,7.6c-0.9,0-3.7,0.4-6-2.7c-0.3-0.5-0.9-1.2-1.3-2.2c0.1,0.1,0.1,0.2,0.2,0.2
		c0.2,0.2,0.4,0.4,0.6,0.5c0.3,0.2,0.7,0.2,1,0.3c2.8,0.2,5.4-1.6,7.8-4c0.7-0.7,1.4-1.5,1.8-2.6c0.4-1,0.5-2.3,0.2-3.4
		c0.3,0.2,0.6,0.4,0.9,0.7C302.6,364.3,303.6,366.4,303.6,368.6z"/>
	<path class="st1" d="M321.7,402.5c0,5.7-6.1,10.4-13.7,10.4c-5.2,0-9.8-2.2-12.1-5.5c-1-1.5-1.6-3.1-1.6-4.9
		c0-5.7,6.1-10.4,13.7-10.4c4,0,7.6,1.3,10.1,3.4C320.4,397.3,321.7,399.8,321.7,402.5z"/>
	<path class="st2" d="M323.7,403.7c0,5.7-6.5,10.3-14.5,10.3c-1.7,0-7,0.6-11.1-3.7c-0.6-0.7-1.6-1.7-2.4-3c0.1,0.1,0.2,0.2,0.3,0.3
		c0.4,0.3,0.8,0.5,1.2,0.7c0.6,0.2,1.2,0.3,1.9,0.4c5.1,0.3,10.1-2.1,14.4-5.4c1.3-0.9,2.5-2,3.3-3.5c0.7-1.3,0.9-3.1,0.4-4.5
		c0.3,0.1,0.6,0.3,0.9,0.5C321.5,397.5,323.7,400.4,323.7,403.7z"/>
	<g id="Camada_2_1_">
		
			<radialGradient id="SVGID_2_" cx="405.9608" cy="861.3" r="7.497790e-02" gradientTransform="matrix(1 0 0 1 0 -580)" gradientUnits="userSpaceOnUse">
			<stop  offset="0.2615" style="stop-color:#462772;stop-opacity:0.65"/>
			<stop  offset="0.5076" style="stop-color:#6F2B7B;stop-opacity:0.7"/>
			<stop  offset="1" style="stop-color:#BB378C;stop-opacity:0.8"/>
		</radialGradient>
		<path class="st3" d="M406.1,281.3c-0.1,0-0.1,0-0.2,0C405.9,281.3,406,281.3,406.1,281.3L406.1,281.3z"/>
		
			<radialGradient id="SVGID_3_" cx="361.5177" cy="992.422" r="1.0461" gradientTransform="matrix(1 0 0 1 0 -580)" gradientUnits="userSpaceOnUse">
			<stop  offset="0.2615" style="stop-color:#462772;stop-opacity:0.65"/>
			<stop  offset="0.5076" style="stop-color:#6F2B7B;stop-opacity:0.7"/>
			<stop  offset="1" style="stop-color:#BB378C;stop-opacity:0.8"/>
		</radialGradient>
		<rect x="361.3" y="411" class="st4" width="0.5" height="2.9"/>
	</g>
</g>
<linearGradient id="SVGID_4_" gradientUnits="userSpaceOnUse" x1="84.8906" y1="664.8906" x2="415.1094" y2="995.1094" gradientTransform="matrix(1 0 0 1 0 -580)">
	<stop  offset="0" style="stop-color:#1F254B"/>
	<stop  offset="0.4134" style="stop-color:#3E3E7F;stop-opacity:0.3283"/>
	<stop  offset="0.6154" style="stop-color:#4C4B9A;stop-opacity:0"/>
</linearGradient>
<circle class="st5" cx="250" cy="250" r="233.5"/>
</svg>
