<?xml version="1.0" encoding="utf-8"?>
<!-- Generator: Adobe Illustrator 22.0.0, SVG Export Plug-In . SVG Version: 6.00 Build 0)  -->
<svg version="1.1" id="Camada_1" xmlns="http://www.w3.org/2000/svg" xmlns:xlink="http://www.w3.org/1999/xlink" x="0px" y="0px"
	 viewBox="0 0 513.7 525" style="enable-background:new 0 0 513.7 525;" xml:space="preserve">
<style type="text/css">
	.st0{fill:#FFFFFF;}
	.st1{fill:#00E676;}
	.st2{fill:#18153D;}
</style>
<g>
	<path class="st0" d="M257.7,56.5c112.5,0,203.6,91.2,203.6,203.6s-91.1,203.6-203.6,203.6c-34.3,0-67.7-8.5-97.8-25l-14.1-7.8
		l-76,20.6l20.7-73.9l-8.6-14.7C63.5,331.6,54,296.3,54,260C54,147.7,145.2,56.5,257.7,56.5L257.7,56.5z M140.6,473.8
		c34.7,19.1,74.6,29.9,117,29.9c134.5,0,243.6-109.1,243.6-243.6c0-134.6-109.1-243.6-243.6-243.6C123,16.5,14,125.6,14,260.1
		c0,44.9,12.2,87,33.4,123.1L12.3,508.5L140.6,473.8z"/>
	<path class="st1" d="M461.3,260.1c0-112.5-91.1-203.6-203.6-203.6S54.1,147.7,54.1,260.1c0,36.3,9.5,71.6,27.9,102.9l8.6,14.7
		l-20.8,73.8l75.9-20.5l14.1,7.8c30.1,16.5,63.5,25,97.8,25C370.1,463.7,461.3,372.6,461.3,260.1L461.3,260.1z M199.6,249.7
		c9.2,15.9,25.2,33.7,39.9,45.1c17.9,13.8,45.9,32,55,23.9c4.3-3.8,16.1-20.9,17.7-22.2c1.6-1.2,6.8-10,19.2-4
		c12.4,6,43.3,21.3,43.3,21.3s6.7,2.7,6.4,13.2c-0.3,10.5-0.7,13.2-0.7,13.2s-4.5,36-53.6,37.4c-22.2,0.6-48-8.4-70.8-20
		c-38.9-19.8-63.2-41.8-89.2-75.9c-17.7-23.2-35.3-53.6-32.2-80.7c5.4-46.9,35.3-51.3,35.3-51.3s2.7-0.3,13.2-0.1
		c10.5,0.2,12.9,7,12.9,7s14.5,33.1,19.9,45.8c5.4,12.7-0.4,18.2-1.7,19.7s-9.1,10.7-13.1,14.8C197,241.2,197.9,246.9,199.6,249.7
		L199.6,249.7z"/>
	<path class="st0" d="M215.8,202.6c-5.4-12.7-19.9-45.8-19.9-45.8s-2.4-6.8-12.9-7s-13.2,0.1-13.2,0.1s-29.9,4.3-35.3,51.3
		c-3.1,27.1,14.5,57.5,32.2,80.7c26,34.1,50.3,56.1,89.2,75.9c22.8,11.6,48.5,20.7,70.8,20c49.1-1.4,53.6-37.4,53.6-37.4
		s0.5-2.7,0.7-13.2c0.3-10.5-6.4-13.2-6.4-13.2s-30.9-15.3-43.3-21.3s-17.6,2.8-19.2,4c-1.6,1.2-13.4,18.4-17.7,22.2
		c-9.1,8.1-37.1-10.1-55-23.9c-14.8-11.4-30.8-29.3-39.9-45.1c-1.6-2.8-2.6-8.5,1.4-12.7c4-4.1,11.8-13.3,13.1-14.8
		C215.4,220.7,221.2,215.2,215.8,202.6L215.8,202.6z"/>
	<path class="st2" d="M437,80.8C389.1,32.9,325.4,6.5,257.7,6.5c-53.3,0-104.3,16.3-147.5,47.3c-4.5,3.2-5.5,9.5-2.3,14
		s9.5,5.5,14,2.3c39.8-28.5,86.8-43.5,135.8-43.5c128.8,0,233.6,104.8,233.6,233.6S386.5,493.8,257.7,493.8
		c-39.2,0-78.1-9.9-112.2-28.7c-2.3-1.2-4.9-1.6-7.4-0.9L26.8,494.3L57.2,386c0.7-2.6,0.4-5.4-1-7.8c-20.9-35.7-32-76.5-32-118.1
		c0-49.1,15.1-96.1,43.5-135.8c3.2-4.5,2.2-10.7-2.3-13.9c-4.5-3.2-10.7-2.2-14,2.3C20.5,155.9,4.1,206.9,4.1,260.2
		c0,43.7,11.3,86.6,32.6,124.5l-34,121.2c-1,3.5,0,7.2,2.5,9.7c1.9,1.9,4.5,3,7.1,3c0.9,0,1.7-0.1,2.6-0.3l124.5-33.8
		c36.2,19.1,77,29.2,118.3,29.2c67.7,0,131.4-26.4,179.3-74.3c47.9-47.9,74.3-111.6,74.3-179.3S484.9,128.7,437,80.8L437,80.8z"/>
	<path class="st2" d="M421.6,381.3c4.6,3.1,10.8,1.8,13.9-2.8c23.4-35.1,35.8-76.1,35.8-118.5c0-57.1-22.2-110.7-62.6-151.1
		c-40.3-40.3-94-62.6-151.1-62.6s-110.7,22.2-151.1,62.6c-40.3,40.3-62.6,94-62.6,151.1c0,38,10.1,75.3,29.2,107.9l6.5,11L60,448.7
		c-1,3.5,0,7.2,2.5,9.7c2.5,2.6,6.2,3.6,9.7,2.6l72-19.5l10.6,5.8c31.2,17.2,66.7,26.2,102.6,26.2c42.4,0,83.3-12.4,118.5-35.8
		c4.6-3.1,5.8-9.3,2.8-13.9c-3.1-4.6-9.3-5.8-13.9-2.8c-31.8,21.2-68.9,32.5-107.4,32.5c-32.5,0-64.7-8.2-93-23.7l-14.1-7.8
		c-2.3-1.2-4.9-1.6-7.4-0.9L84,437l16-56.9c0.7-2.6,0.4-5.4-1-7.8l-8.6-14.7c-17.3-29.5-26.5-63.4-26.5-97.8
		c0-106.8,86.9-193.6,193.6-193.6c106.8,0,193.6,86.9,193.6,193.6c0,38.4-11.2,75.5-32.5,107.4C415.7,372.1,417,378.3,421.6,381.3
		L421.6,381.3z"/>
	<path class="st2" d="M221.1,229.4l0.7-0.8c9-10.1,6.7-21.9,3.2-30c-5.1-12-18.6-42.7-19.8-45.6c-2-5-8.6-13-21.9-13.2
		c-10.4-0.2-13.8,0.1-14.6,0.2c-0.1,0-0.2,0-0.2,0c-1.5,0.2-37.5,6.1-43.8,60c-2.9,24.8,8.6,54.4,34.2,87.9
		c28.3,37.1,54.2,59.2,92.6,78.8c19.1,9.8,47.1,21.2,73.1,21.2c0.8,0,1.7,0,2.5,0c29.2-0.9,44.8-13,52.8-23
		c8.4-10.7,10.2-21.1,10.4-23c0.2-1.2,0.6-4.8,0.8-14.3c0.4-13.3-7.3-20.3-12.2-22.5c-2.8-1.4-31.4-15.6-43.1-21.3
		c-7.9-3.8-19.6-6-30.1,5.3c-0.1,0.1-0.1,0.1-0.2,0.2c-1.4,1.2-2.8,3.1-7.1,8.8c-2.6,3.5-7.9,10.5-10.1,12.9
		c-4.7,0.3-20.4-6.6-42.7-23.9c-14.1-10.9-29.1-27.8-37.4-42.2c-0.1-0.2-0.1-0.6-0.1-0.8C211.6,240.5,217.2,234,221.1,229.4
		L221.1,229.4z M233.4,302.8c6.7,5.2,19.7,14.8,32.4,21.2c6,3,24.1,12.3,35.4,2.3c3.1-2.7,7.5-8.5,13.4-16.4c1.7-2.3,3.8-5,4.6-6
		c0.5-0.5,1-0.9,1.4-1.4c1.8-2,2.6-2.8,6.6-0.9c12,5.8,42.1,20.8,43.2,21.3c0.4,0.4,0.9,1.6,0.9,4c-0.2,8.3-0.5,11.3-0.6,11.8
		c0,0.2,0,0.1,0,0.3c-0.1,0.7-1.4,7.4-6.9,14c-7.8,9.3-20.2,14.2-37.1,14.7c-22.5,0.7-48.3-9.9-65.9-19
		c-36-18.3-59.2-38.1-85.8-73.1c-22-28.8-32.4-54.2-30.2-73.5c4.2-36.2,24-41.9,26.7-42.5c0.9-0.1,4.1-0.2,11.6,0
		c2.4,0.1,3.6,0.7,3.9,1.1c0.5,1.1,14.6,33.3,19.9,45.6c2.6,6.2,1,8,0.2,8.8c-0.1,0.2-0.3,0.3-0.4,0.4l-0.6,0.7
		c-5.8,6.8-9.8,11.4-12.1,13.7c-7.4,7.6-6.7,18.1-2.9,24.6C200.5,271.4,217.2,290.3,233.4,302.8L233.4,302.8z"/>
	<path class="st2" d="M85.4,97.9c2.4,0,4.8-0.9,6.7-2.6c4.1-3.7,4.4-10,0.7-14.1s-10-4.4-14.1-0.7l0,0c-4.1,3.7-4.4,10-0.7,14.1
		C80,96.7,82.7,97.9,85.4,97.9L85.4,97.9z"/>
	<path class="st2" d="M394.2,397.4L394.2,397.4c-3.7,4.1-3.4,10.4,0.7,14.1c1.9,1.7,4.3,2.6,6.7,2.6c2.7,0,5.4-1.1,7.4-3.3
		c3.7-4.1,3.4-10.4-0.7-14.1C404.3,393,397.9,393.3,394.2,397.4L394.2,397.4z"/>
</g>
</svg>
